<?xml version="1.0" encoding="UTF-8" standalone="no"?>
<!DOCTYPE svg PUBLIC "-//W3C//DTD SVG 1.1//EN" "http://www.w3.org/Graphics/SVG/1.1/DTD/svg11.dtd">
<svg xmlns="http://www.w3.org/2000/svg" version="1.1" viewBox="0.00 0.00 1024.00 1024.00">
<g stroke-width="2.00" fill="none" stroke-linecap="butt">
<path stroke="#387c99" vector-effect="non-scaling-stroke" d="
  M 508.12 262.93
  Q 499.09 267.45 499.47 277.44
  Q 499.67 282.44 501.94 285.64
  C 506.29 291.77 513.54 294.19 520.42 291.14
  Q 528.87 287.39 530.44 278.59"
/>
<path stroke="#6d8665" vector-effect="non-scaling-stroke" d="
  M 428.11 401.82
  Q 422.74 412.35 418.91 424.63
  Q 418.77 425.07 419.07 425.41
  Q 425.58 432.89 432.40 440.11
  Q 433.66 441.43 435.49 441.77
  Q 470.23 448.09 505.57 448.28
  Q 506.53 448.29 506.54 447.33
  L 507.03 342.80
  A 0.27 0.27 0.0 0 0 506.75 342.53
  Q 490.53 343.52 473.97 348.17
  Q 472.43 348.60 471.11 349.82
  Q 464.60 355.86 458.22 361.74
  Q 439.99 378.56 428.11 401.82"
/>
<path stroke="#6d8665" vector-effect="non-scaling-stroke" d="
  M 611.56 424.17
  C 607.56 411.82 602.12 399.28 594.85 388.76
  Q 583.82 372.81 569.93 359.92
  Q 563.71 354.15 557.93 348.68
  A 2.65 2.64 72.3 0 0 556.64 348.01
  Q 540.47 344.74 524.32 342.75
  Q 523.91 342.70 523.91 343.11
  L 523.71 447.77
  A 0.62 0.62 0.0 0 0 524.32 448.39
  C 547.18 448.62 568.38 445.50 592.40 442.16
  Q 594.27 441.90 595.57 440.62
  Q 603.26 433.04 611.22 425.53
  A 1.31 1.31 0.0 0 0 611.56 424.17"
/>
<path stroke="#387c99" vector-effect="non-scaling-stroke" d="
  M 326.05 351.41
  Q 325.22 351.55 324.60 352.10
  C 318.70 357.29 319.82 365.87 325.63 370.57
  Q 327.38 371.99 329.25 372.06
  Q 339.58 372.46 342.47 363.43"
/>
<path stroke="#896341" vector-effect="non-scaling-stroke" d="
  M 693.39 351.72
  Q 692.86 351.52 692.00 352.21
  Q 688.32 355.16 688.22 359.30
  Q 688.06 366.18 692.29 369.63
  Q 695.80 372.50 700.63 371.76
  Q 705.76 370.99 708.11 365.86"
/>
<path stroke="#547148" vector-effect="non-scaling-stroke" d="
  M 421.94 367.39
  Q 409.51 374.24 398.26 382.79
  Q 391.68 387.78 385.43 393.00
  A 0.39 0.38 -43.5 0 0 385.41 393.57
  L 395.41 403.20"
/>
<path stroke="#6d8665" vector-effect="non-scaling-stroke" d="
  M 395.41 403.20
  L 404.32 412.18
  A 0.39 0.38 -57.3 0 0 404.95 412.04
  Q 415.64 383.04 435.54 360.87
  Q 436.63 359.66 435.19 360.42
  L 421.94 367.39"
/>
<path stroke="#a7c375" vector-effect="non-scaling-stroke" d="
  M 395.41 403.20
  Q 397.47 400.10 399.84 397.28
  Q 403.71 392.65 404.53 391.59
  Q 410.62 383.64 416.25 376.32
  C 417.64 374.50 419.29 373.13 420.64 371.36
  Q 421.24 370.57 421.46 369.46
  Q 421.65 368.48 421.94 367.39"
/>
<path stroke="#6d8665" vector-effect="non-scaling-stroke" d="
  M 645.56 393.42
  C 631.09 380.16 613.81 368.96 595.19 361.32
  A 0.31 0.30 -11.9 0 0 594.86 361.82
  C 597.32 364.10 599.55 366.54 601.62 369.24
  Q 612.50 383.39 620.32 399.48
  Q 623.31 405.64 625.36 411.69
  A 0.45 0.45 0.0 0 0 626.08 411.88
  L 645.55 394.73
  A 0.88 0.88 0.0 0 0 645.56 393.42"
/>
<path stroke="#6d8665" vector-effect="non-scaling-stroke" d="
  M 376.56 434.50
  L 394.05 439.53
  A 0.59 0.58 -73.3 0 0 394.77 439.14
  L 397.58 429.55
  A 0.57 0.56 29.3 0 0 397.41 428.97
  L 382.49 415.67"
/>
<path stroke="#547148" vector-effect="non-scaling-stroke" d="
  M 382.49 415.67
  L 372.70 405.77
  A 0.65 0.65 0.0 0 0 371.74 405.81
  Q 362.85 416.29 354.89 427.15
  A 0.68 0.67 -63.7 0 0 355.24 428.20
  L 376.56 434.50"
/>
<path stroke="#a7c375" vector-effect="non-scaling-stroke" d="
  M 382.49 415.67
  L 376.56 434.50"
/>
<path stroke="#6d8665" vector-effect="non-scaling-stroke" d="
  M 636.79 439.26
  C 649.62 434.40 663.31 431.27 676.67 428.82
  A 0.68 0.68 0.0 0 0 677.07 427.71
  L 659.30 406.42
  Q 658.86 405.90 658.38 406.38
  C 650.46 414.30 641.82 420.96 633.20 428.08
  Q 632.73 428.46 632.90 429.04
  L 635.78 438.76
  A 0.77 0.76 71.0 0 0 636.79 439.26"
/>
<path stroke="#6d8665" vector-effect="non-scaling-stroke" d="
  M 378.17 477.58
  L 386.72 480.22
  A 0.54 0.54 0.0 0 0 387.42 479.71
  Q 387.52 468.22 389.65 456.79
  Q 389.76 456.20 389.18 456.03
  L 377.28 452.49"
/>
<path stroke="#547148" vector-effect="non-scaling-stroke" d="
  M 377.28 452.49
  L 344.57 443.70
  Q 343.57 443.43 343.04 444.32
  Q 322.90 478.38 317.19 517.26
  Q 317.09 517.90 317.74 517.79
  C 327.71 516.10 337.59 513.74 347.67 513.22
  A 0.95 0.95 0.0 0 0 348.58 512.26
  Q 348.32 495.98 348.71 478.63
  C 348.84 472.83 352.13 469.47 358.23 471.34
  Q 368.22 474.41 378.17 477.58"
/>
<path stroke="#a7c375" vector-effect="non-scaling-stroke" d="
  M 377.28 452.49
  Q 375.83 462.73 376.50 469.76
  Q 376.70 471.84 378.47 475.04
  Q 378.70 475.46 378.47 475.90
  Q 378.03 476.71 378.17 477.58"
/>
<path stroke="#6d8665" vector-effect="non-scaling-stroke" d="
  M 696.82 461.97
  Q 692.41 452.54 687.24 444.21
  Q 687.00 443.83 686.57 443.93
  C 681.19 445.11 675.68 446.20 670.49 447.55
  Q 656.07 451.31 641.27 454.98
  Q 640.67 455.13 640.80 455.74
  Q 643.44 468.28 643.25 479.99
  Q 643.24 480.64 643.87 480.46
  Q 656.81 476.77 670.28 472.01
  Q 674.81 470.41 677.16 471.12
  Q 681.96 472.58 681.92 478.28
  Q 681.79 494.69 681.95 511.59
  Q 681.96 512.57 682.94 512.64
  Q 697.27 513.70 712.52 517.81
  Q 713.09 517.96 713.15 517.37
  Q 713.34 515.71 713.09 514.12
  Q 708.85 487.66 696.82 461.97"
/>
<path stroke="#896341" vector-effect="non-scaling-stroke" d="
  M 406.03 464.98
  Q 405.81 465.01 405.62 465.28
  Q 405.47 465.50 405.46 465.77
  Q 405.36 469.33 404.80 472.64
  A 0.86 0.84 28.0 0 0 405.03 473.37
  L 405.29 473.64"
/>
<path stroke="#896341" vector-effect="non-scaling-stroke" d="
  M 430.29 493.37
  L 447.82 498.44"
/>
<path stroke="#8c816f" vector-effect="non-scaling-stroke" d="
  M 447.82 498.44
  L 460.49 502.70"
/>
<path stroke="#896341" vector-effect="non-scaling-stroke" d="
  M 460.49 502.70
  L 494.71 513.77
  Q 495.87 514.14 495.15 513.16
  Q 492.75 509.94 489.19 507.15
  Q 488.86 506.90 488.45 506.91
  Q 488.17 506.92 487.95 506.82"
/>
<path stroke="#fbb179" vector-effect="non-scaling-stroke" d="
  M 460.49 502.70
  Q 458.39 499.70 453.64 499.23"
/>
<path stroke="#fbb179" vector-effect="non-scaling-stroke" d="
  M 448.73 498.10
  Q 448.38 498.66 447.82 498.44"
/>
<path stroke="#896341" vector-effect="non-scaling-stroke" d="
  M 540.76 507.70
  Q 537.16 509.81 534.13 514.06
  Q 533.69 514.68 534.40 514.42
  Q 542.62 511.44 550.71 509.13
  C 558.71 506.84 566.48 503.73 574.77 501.06
  Q 575.79 500.73 575.83 499.56"
/>
<path stroke="#896341" vector-effect="non-scaling-stroke" d="
  M 626.19 473.49
  Q 626.38 469.86 625.23 466.09"
/>
<path stroke="#6d8665" vector-effect="non-scaling-stroke" d="
  M 565.77 465.97
  Q 567.92 464.77 570.06 463.47
  Q 571.04 462.87 569.90 463.00
  Q 547.59 465.66 524.58 465.63
  Q 523.94 465.63 523.94 466.26
  L 523.68 500.25
  Q 523.67 501.95 524.68 500.59
  C 535.26 486.33 550.30 474.56 565.77 465.97"
/>
<path stroke="#6d8665" vector-effect="non-scaling-stroke" d="
  M 464.55 466.08
  Q 480.10 474.81 493.20 486.64
  C 497.88 490.86 502.00 495.59 506.39 500.00
  Q 506.93 500.55 506.93 499.78
  L 506.93 465.99
  A 0.17 0.17 0.0 0 0 506.76 465.82
  Q 485.30 465.49 461.38 463.48
  Q 460.37 463.40 461.20 463.98
  Q 462.77 465.08 464.55 466.08"
/>
<path stroke="#8d7055" vector-effect="non-scaling-stroke" d="
  M 364.97 500.37
  L 364.94 508.28"
/>
<path stroke="#896341" vector-effect="non-scaling-stroke" d="
  M 364.94 508.28
  L 365.13 682.71
  Q 365.13 683.04 365.44 683.14
  Q 408.40 697.24 451.38 711.45
  C 469.71 717.51 488.36 723.24 506.52 729.15
  A 0.37 0.37 0.0 0 0 507.01 728.80
  L 506.98 543.79"
/>
<path stroke="#8d7055" vector-effect="non-scaling-stroke" d="
  M 506.98 543.79
  L 506.77 535.53
  Q 506.76 535.01 506.27 534.86
  L 494.46 531.13"
/>
<path stroke="#8c816f" vector-effect="non-scaling-stroke" d="
  M 494.46 531.13
  C 487.96 529.35 481.55 527.63 475.24 525.47
  C 468.94 523.31 462.31 520.91 455.80 519.56
  Q 452.70 518.92 449.00 517.50
  Q 446.21 516.42 442.50 515.56
  Q 441.14 515.24 436.66 513.62
  Q 433.68 512.54 430.55 512.45"
/>
<path stroke="#8c816f" vector-effect="non-scaling-stroke" d="
  M 425.05 510.90
  Q 424.86 510.33 424.49 509.95"
/>
<path stroke="#547148" vector-effect="non-scaling-stroke" d="
  M 424.49 509.95
  Q 422.11 508.90 421.99 509.84"
/>
<path stroke="#8c816f" vector-effect="non-scaling-stroke" d="
  M 421.99 509.84
  Q 421.93 509.85 421.87 509.86"
/>
<path stroke="#547148" vector-effect="non-scaling-stroke" d="
  M 421.40 509.51
  Q 420.77 508.16 419.73 508.82"
/>
<path stroke="#8c816f" vector-effect="non-scaling-stroke" d="
  M 411.54 506.75
  Q 410.80 506.13 409.65 505.96"
/>
<path stroke="#547148" vector-effect="non-scaling-stroke" d="
  M 397.51 501.86
  Q 397.20 500.75 396.26 500.65
  Q 394.40 500.45 393.39 499.87
  Q 392.28 499.23 391.23 499.87"
/>
<path stroke="#547148" vector-effect="non-scaling-stroke" d="
  M 390.33 499.50
  Q 389.84 498.43 388.49 498.60
  C 387.03 498.78 386.49 497.80 385.45 497.47
  Q 383.43 496.84 381.28 496.63"
/>
<path stroke="#547148" vector-effect="non-scaling-stroke" d="
  M 380.20 496.35
  Q 378.12 494.89 375.51 494.59
  Q 375.19 494.55 375.05 495.15"
/>
<path stroke="#8c816f" vector-effect="non-scaling-stroke" d="
  M 374.23 494.92
  Q 373.96 494.77 373.69 494.28
  A 0.99 0.98 -6.8 0 0 373.10 493.82
  L 365.77 491.76
  Q 365.07 491.56 365.07 492.29
  L 364.97 500.37"
/>
<path stroke="#c5bf7f" vector-effect="non-scaling-stroke" d="
  M 383.75 498.05
  Q 384.20 498.52 384.62 498.51"
/>
<path stroke="#c5bf7f" vector-effect="non-scaling-stroke" d="
  M 421.99 509.84
  L 424.49 509.95"
/>
<path stroke="#febe8d" vector-effect="non-scaling-stroke" d="
  M 494.46 531.13
  Q 492.25 534.62 493.25 537.69
  A 1.09 1.09 0.0 0 1 491.81 539.04
  Q 476.94 533.23 462.43 528.99
  Q 442.12 523.05 426.17 517.62
  Q 424.54 517.07 423.02 516.01
  Q 422.64 515.74 422.19 515.88
  Q 421.47 516.10 420.75 515.96
  Q 416.40 515.17 412.49 513.74
  Q 406.47 511.53 404.41 510.90
  Q 395.56 508.18 386.38 505.61
  Q 385.77 505.44 385.47 504.51"
/>
<path stroke="#febe8d" vector-effect="non-scaling-stroke" d="
  M 384.35 504.09
  Q 381.29 504.39 378.02 502.88
  C 377.10 502.46 376.14 502.57 375.79 501.20
  Q 375.75 501.02 375.64 500.87
  Q 375.50 500.69 375.27 500.65
  Q 374.70 500.56 374.64 501.14
  Q 374.61 501.53 374.26 501.69
  Q 373.80 501.88 373.34 501.71
  Q 369.27 500.17 364.97 500.37"
/>
<path stroke="#fca05f" vector-effect="non-scaling-stroke" d="
  M 506.98 543.79
  Q 506.64 544.17 506.17 544.09
  C 505.48 543.96 505.14 542.88 504.17 542.56
  Q 499.24 540.94 494.24 539.31
  A 1.02 1.02 0.0 0 0 492.90 540.29
  L 492.92 651.46
  A 0.92 0.92 0.0 0 1 491.54 652.25
  Q 487.44 649.85 482.26 647.42
  Q 480.45 646.58 478.95 645.43
  A 0.89 0.88 -57.1 0 1 478.71 644.29
  C 480.90 640.43 481.59 635.01 477.12 632.25
  Q 471.20 628.59 465.24 624.67
  C 461.21 622.01 457.73 618.94 453.91 616.17
  Q 449.86 613.24 445.84 609.63
  Q 428.86 594.38 415.15 578.35
  Q 396.22 556.22 379.32 531.08
  Q 377.08 527.74 372.19 519.66
  Q 368.79 514.03 364.94 508.28"
/>
<path stroke="#896341" vector-effect="non-scaling-stroke" d="
  M 523.84 543.31
  L 523.50 725.21"
/>
<path stroke="#8d7055" vector-effect="non-scaling-stroke" d="
  M 523.50 725.21
  L 523.64 728.41
  A 0.38 0.38 0.0 0 0 524.14 728.75
  Q 562.91 716.48 601.96 704.19
  C 623.05 697.55 644.04 690.42 665.08 684.53
  A 0.48 0.48 0.0 0 0 665.43 684.07
  L 665.35 502.60"
/>
<path stroke="#8c816f" vector-effect="non-scaling-stroke" d="
  M 665.35 502.60
  L 665.08 492.21
  Q 665.06 491.62 664.49 491.80
  C 657.20 494.13 649.58 495.97 642.52 498.20
  Q 616.08 506.54 590.10 514.24
  C 568.23 520.72 546.60 527.87 524.70 534.52
  A 1.27 1.25 81.7 0 0 523.81 535.73
  L 523.84 543.31"
/>
<path stroke="#febe8d" vector-effect="non-scaling-stroke" d="
  M 665.35 502.60
  Q 656.55 501.51 646.99 504.98
  Q 640.19 507.46 632.21 509.75
  C 621.13 512.93 611.53 516.42 601.25 519.51
  Q 587.15 523.75 536.70 538.65"
/>
<path stroke="#fbb179" vector-effect="non-scaling-stroke" d="
  M 536.70 538.65
  Q 532.36 539.79 528.87 540.76
  Q 527.61 541.11 526.31 541.92
  Q 525.08 542.69 523.84 543.31"
/>
<path stroke="#fca05f" vector-effect="non-scaling-stroke" d="
  M 523.50 725.21
  Q 528.62 724.93 532.80 723.05
  A 1.76 1.70 34.7 0 1 533.71 722.90
  Q 536.30 723.12 536.45 720.50
  C 536.99 711.47 536.34 702.29 536.42 693.33
  C 536.54 680.84 536.88 667.80 536.87 655.56
  Q 536.85 639.19 537.03 622.83
  C 537.16 611.69 536.77 599.25 536.98 587.44
  Q 537.19 576.27 537.09 567.49
  Q 536.94 553.14 536.70 538.65"
/>
<path stroke="#896341" vector-effect="non-scaling-stroke" d="
  M 242.76 523.02
  Q 236.35 526.11 236.08 532.91
  C 235.88 538.05 238.41 542.61 242.69 545.12
  C 249.67 549.21 256.98 545.78 260.49 539.01
  Q 260.93 538.16 260.54 537.57"
/>
<path stroke="#8d7055" vector-effect="non-scaling-stroke" d="
  M 775.98 522.81
  Q 775.41 522.59 774.90 522.92
  Q 768.80 526.82 768.68 532.95"
/>
<path stroke="#896341" vector-effect="non-scaling-stroke" d="
  M 768.68 532.95
  C 768.61 541.38 775.04 548.31 783.74 546.80
  Q 787.96 546.07 790.45 543.60"
/>
<path stroke="#8d7055" vector-effect="non-scaling-stroke" d="
  M 790.45 543.60
  Q 793.42 540.84 794.14 537.68"
/>
<path stroke="#fca05f" vector-effect="non-scaling-stroke" d="
  M 790.45 543.60
  Q 788.27 543.07 783.25 542.43
  Q 774.84 541.35 768.68 532.95"
/>
<path stroke="#6d8665" vector-effect="non-scaling-stroke" d="
  M 715.11 554.63
  Q 715.38 545.67 715.17 536.41
  Q 715.16 535.86 714.62 535.80
  C 712.03 535.50 709.48 535.09 706.95 534.52
  Q 694.70 531.72 682.63 529.97
  Q 681.93 529.87 681.93 530.57
  L 681.75 598.74
  A 0.74 0.73 0.0 0 0 682.49 599.47
  L 708.11 599.49
  Q 708.33 599.49 708.39 599.28
  Q 714.44 576.96 715.11 554.63"
/>
<path stroke="#547148" vector-effect="non-scaling-stroke" d="
  M 334.95 532.10
  L 316.30 535.39
  Q 315.79 535.48 315.78 536.01
  Q 315.49 556.84 316.40 567.43
  Q 317.76 583.10 322.16 599.16
  A 0.32 0.31 81.2 0 0 322.46 599.39
  L 344.86 599.37"
/>
<path stroke="#6d8665" vector-effect="non-scaling-stroke" d="
  M 344.86 599.37
  L 347.65 599.42
  Q 348.38 599.43 348.38 598.69
  L 348.45 531.10
  Q 348.45 530.13 347.49 530.27
  L 334.95 532.10"
/>
<path stroke="#a7c375" vector-effect="non-scaling-stroke" d="
  M 344.86 599.37
  Q 340.73 586.08 339.03 578.25
  Q 334.37 556.76 334.95 532.10"
/>
<path stroke="#6d8665" vector-effect="non-scaling-stroke" d="
  M 257.48 605.17
  C 251.00 608.27 255.13 618.29 261.75 618.28
  Q 264.79 618.28 266.74 616.96
  Q 270.75 614.25 269.66 609.52"
/>
<path stroke="#6d8665" vector-effect="non-scaling-stroke" d="
  M 764.80 603.75
  C 760.16 605.82 758.58 611.51 761.68 615.36
  Q 763.33 617.42 766.50 618.10
  Q 773.65 619.63 775.60 611.02"
/>
<path stroke="#6d8665" vector-effect="non-scaling-stroke" d="
  M 774.69 608.82
  Q 774.53 606.44 771.77 605.13"
/>
<path stroke="#547148" vector-effect="non-scaling-stroke" d="
  M 767.75 603.18
  Q 766.64 602.31 764.80 603.75"
/>
<path stroke="#a7c375" vector-effect="non-scaling-stroke" d="
  M 765.06 604.45
  Q 765.11 603.67 764.80 603.75"
/>
<path stroke="#547148" vector-effect="non-scaling-stroke" d="
  M 347.93 616.39
  Q 338.26 617.03 327.27 616.64
  A 0.19 0.19 0.0 0 0 327.08 616.89
  C 332.51 631.52 338.66 646.67 347.73 659.33
  Q 348.66 660.63 348.66 659.04
  L 348.49 616.91
  A 0.52 0.52 0.0 0 0 347.93 616.39"
/>
<path stroke="#6d8665" vector-effect="non-scaling-stroke" d="
  M 682.16 661.63
  C 691.02 648.07 698.38 633.07 703.70 617.73
  Q 704.08 616.63 702.91 616.63
  L 682.25 616.66
  Q 681.66 616.66 681.66 617.25
  L 681.68 661.49
  Q 681.68 662.38 682.16 661.63"
/>
<path stroke="#547148" vector-effect="non-scaling-stroke" d="
  M 444.25 745.28
  Q 464.20 754.10 483.95 757.17
  Q 494.93 758.88 506.23 760.18
  A 0.49 0.48 3.2 0 0 506.77 759.70
  L 506.75 746.58
  A 0.79 0.79 0.0 0 0 506.15 745.81
  Q 489.51 741.44 477.75 737.72
  Q 457.95 731.46 435.10 724.18
  C 420.23 719.44 405.45 714.18 390.83 709.36
  Q 387.26 708.18 390.15 710.58
  Q 399.13 718.02 409.25 725.42
  Q 424.46 736.53 444.25 745.28"
/>
<path stroke="#547148" vector-effect="non-scaling-stroke" d="
  M 624.71 714.38
  C 615.23 717.30 605.87 720.56 596.40 723.42
  C 585.10 726.83 572.16 731.48 562.48 734.45
  Q 544.38 739.99 525.07 744.99
  A 1.77 1.76 -7.6 0 0 523.75 746.71
  L 523.77 759.29
  Q 523.77 760.04 524.52 759.98
  C 539.63 758.73 554.01 756.50 567.69 751.76
  Q 573.53 749.73 579.41 747.63
  Q 587.01 744.92 596.91 740.00
  C 612.07 732.48 626.24 722.45 638.90 712.10
  Q 640.34 710.92 641.27 709.75
  Q 641.97 708.88 640.91 709.22
  Q 633.09 711.79 624.71 714.38"
/>
<path stroke="#387c99" vector-effect="non-scaling-stroke" d="
  M 693.67 720.96
  Q 686.64 724.45 688.08 731.99
  Q 689.10 737.35 693.25 738.98
  Q 702.44 742.59 707.51 733.73
  Q 707.92 733.01 707.73 732.31"
/>
<path stroke="#6d8665" vector-effect="non-scaling-stroke" d="
  M 326.75 721.76
  Q 325.97 721.05 324.61 722.61
  Q 322.81 724.68 322.35 727.54
  C 321.01 735.87 327.81 742.67 336.17 739.13
  Q 340.62 737.25 341.40 733.61"
/>
<path stroke="#896341" vector-effect="non-scaling-stroke" d="
  M 508.66 795.27
  Q 507.75 795.22 506.64 796.16
  C 500.96 800.96 499.03 809.67 504.81 815.34
  C 508.66 819.11 514.04 820.88 519.21 818.76
  Q 524.15 816.73 526.59 811.31"
/>
<path stroke="#387c99" vector-effect="non-scaling-stroke" d="
  M 264.8676 479.0852
  A 7.17 6.87 71.9 0 0 269.1700 470.1357
  A 7.17 6.87 71.9 0 0 260.4124 465.4548
  A 7.17 6.87 71.9 0 0 256.1100 474.4043
  A 7.17 6.87 71.9 0 0 264.8676 479.0852"
/>
<path stroke="#6d8665" vector-effect="non-scaling-stroke" d="
  M 761.77 466.98
  Q 758.42 470.60 760.25 474.80
  C 761.96 478.76 765.58 480.46 769.61 478.36
  Q 772.52 476.85 773.40 473.70"
/>
<path stroke="#8d7055" vector-effect="non-scaling-stroke" d="
  M 577.30 600.29
  L 577.27 565.21
  A 1.02 0.99 83.0 0 1 578.02 564.23
  Q 592.38 560.56 607.53 555.69
  C 617.67 552.43 627.56 549.60 637.58 546.61
  C 645.43 544.26 646.06 533.85 638.05 531.27
  Q 635.90 530.58 633.90 531.17
  Q 607.04 539.23 583.44 546.32
  C 573.09 549.43 562.15 549.86 561.99 564.00
  Q 561.77 583.73 561.96 604.46
  Q 562.01 610.05 562.96 612.46
  C 564.54 616.48 569.33 619.56 573.80 618.24
  Q 609.79 607.65 635.84 600.13
  C 641.02 598.64 647.11 592.77 642.52 587.13
  Q 638.79 582.56 632.84 584.39
  Q 606.25 592.55 577.96 600.79
  A 0.52 0.52 0.0 0 1 577.30 600.29"
/>
<path stroke="#8d7055" vector-effect="non-scaling-stroke" d="
  M 643.7790 562.4458
  A 7.76 7.76 0.0 0 0 634.0983 557.2768
  L 591.7880 570.1316
  A 7.76 7.76 0.0 0 0 586.6189 579.8123
  L 586.7410 580.2142
  A 7.76 7.76 0.0 0 0 596.4217 585.3832
  L 638.7320 572.5284
  A 7.76 7.76 0.0 0 0 643.9011 562.8477
  L 643.7790 562.4458"
/>
</g>
<path fill="#1a3337" d="
  M 506.48 777.58
  Q 504.47 776.90 502.54 776.77
  Q 474.74 774.87 450.43 766.68
  C 420.41 756.56 393.11 738.10 370.02 715.80
  A 1.61 1.60 50.3 0 0 368.04 715.61
  L 358.27 721.87
  Q 357.19 722.56 357.34 723.84
  C 357.73 727.03 358.25 729.96 357.81 733.23
  C 354.95 754.46 329.52 762.72 314.20 748.45
  C 308.79 743.40 305.92 736.92 306.14 729.28
  Q 306.46 718.36 313.98 710.70
  C 322.32 702.19 336.43 700.16 346.10 707.77
  A 1.97 1.97 0.0 0 0 348.47 707.81
  L 356.52 701.93
  A 0.69 0.69 0.0 0 0 356.62 700.90
  C 347.24 690.80 339.20 679.52 331.89 667.86
  Q 316.85 643.91 308.49 617.84
  A 1.62 1.62 0.0 0 0 306.92 616.72
  L 285.90 617.02
  A 1.65 1.64 10.1 0 0 284.40 618.06
  Q 280.41 628.17 270.37 632.62
  Q 262.30 636.21 253.95 632.68
  C 241.61 627.47 235.53 615.00 240.13 602.17
  C 244.05 591.22 255.82 585.41 266.88 587.69
  Q 276.67 589.70 282.61 599.13
  Q 283.21 600.08 284.40 600.07
  Q 293.67 599.96 302.07 600.14
  A 1.19 1.18 -5.2 0 0 303.26 598.72
  C 299.59 580.71 297.71 562.76 298.10 544.21
  A 1.13 1.12 -89.0 0 0 297.00 543.06
  L 277.54 542.68
  A 1.94 1.94 0.0 0 0 275.69 543.96
  C 272.48 552.92 264.33 560.10 255.01 561.91
  Q 240.07 564.80 229.16 554.28
  Q 218.46 543.96 220.27 530.46
  C 222.28 515.53 235.12 504.01 250.32 505.16
  Q 264.19 506.21 272.38 517.55
  C 274.04 519.84 275.11 522.83 276.45 525.40
  A 1.23 1.20 -12.8 0 0 277.52 526.06
  L 297.44 526.20
  A 1.29 1.28 3.2 0 0 298.73 525.05
  Q 300.69 504.86 306.18 485.81
  Q 307.14 482.51 310.66 472.22
  C 320.59 443.27 336.85 417.29 358.74 394.30
  Q 359.66 393.34 358.56 392.58
  Q 352.15 388.18 346.63 382.76
  A 0.80 0.80 0.0 0 0 345.54 382.73
  Q 342.40 385.47 338.78 386.57
  C 317.12 393.18 299.27 371.37 306.90 350.94
  Q 310.24 341.98 317.93 337.12
  C 325.23 332.49 336.98 332.06 344.47 336.57
  Q 358.46 344.99 358.28 361.78
  C 358.26 363.95 357.49 365.93 357.07 368.04
  A 1.46 1.46 0.0 0 0 357.52 369.42
  L 370.86 381.66
  A 1.22 1.21 44.5 0 0 372.52 381.65
  Q 384.59 370.18 398.49 361.10
  Q 431.72 339.41 469.97 330.59
  Q 487.42 326.58 505.85 325.52
  A 1.43 1.42 -2.1 0 0 507.20 324.08
  L 506.95 308.17
  A 1.02 1.01 -81.7 0 0 506.24 307.21
  Q 495.77 303.87 488.87 293.60
  Q 483.26 285.27 484.09 274.90
  C 485.35 259.05 496.93 246.25 513.27 245.65
  Q 524.35 245.24 532.42 250.89
  C 544.96 259.66 549.93 275.89 543.06 289.88
  Q 537.42 301.39 525.47 306.07
  A 2.64 2.63 79.5 0 0 523.79 308.53
  L 523.77 324.01
  Q 523.77 325.21 524.96 325.31
  C 537.25 326.39 549.98 327.66 561.79 330.58
  C 597.99 339.53 631.71 356.37 658.31 381.39
  Q 659.89 382.87 661.42 381.35
  Q 666.84 376.02 672.37 371.40
  A 2.54 2.53 -26.7 0 0 673.21 368.86
  Q 668.32 348.53 685.07 337.25
  Q 691.29 333.06 700.75 333.79
  Q 710.64 334.55 717.84 341.84
  C 731.39 355.58 726.34 380.05 708.04 386.50
  Q 696.70 390.50 686.11 384.64
  A 1.60 1.59 39.9 0 0 684.32 384.80
  L 673.27 393.81
  Q 672.10 394.76 673.12 395.86
  Q 680.52 403.80 687.64 412.61
  C 704.51 433.46 716.30 458.29 724.35 484.08
  C 728.49 497.36 730.84 511.33 732.42 525.23
  A 1.09 1.09 0.0 0 0 733.50 526.20
  L 753.00 526.08
  A 1.94 1.94 0.0 0 0 754.83 524.74
  C 759.46 510.64 773.03 502.90 787.56 505.63
  Q 801.21 508.19 808.01 522.07
  C 810.40 526.95 810.16 532.58 809.95 537.86
  C 809.50 548.94 799.50 558.15 789.60 561.26
  C 774.51 565.99 760.79 557.73 754.42 543.85
  A 1.11 1.10 -11.8 0 0 753.43 543.21
  L 734.13 542.89
  A 1.30 1.29 -88.4 0 0 732.82 544.14
  C 732.49 552.13 732.65 559.79 731.84 567.93
  Q 730.25 583.96 727.02 599.35
  A 0.67 0.67 0.0 0 0 727.68 600.16
  Q 736.50 600.16 745.33 600.03
  C 746.82 600.01 747.55 599.54 748.30 598.28
  Q 755.97 585.38 771.19 587.51
  C 783.60 589.24 793.37 602.77 790.69 615.25
  Q 787.79 628.80 774.21 633.03
  C 767.52 635.11 760.68 634.36 754.96 630.26
  Q 748.22 625.41 746.08 618.41
  A 1.84 1.82 83.4 0 0 744.47 617.12
  Q 734.60 616.44 723.24 617.05
  A 1.71 1.70 2.7 0 0 721.65 618.49
  Q 720.80 623.98 718.24 629.32
  Q 713.61 639.01 709.97 647.69
  Q 708.51 651.16 706.55 654.31
  C 704.18 658.12 702.33 662.21 699.82 665.96
  C 696.17 671.42 693.16 677.01 688.94 682.27
  Q 681.39 691.70 674.85 700.36
  Q 674.22 701.19 675.09 701.77
  L 683.66 707.44
  A 1.44 1.43 41.2 0 0 685.39 707.33
  C 693.65 700.19 706.13 702.23 714.03 708.97
  C 723.53 717.06 727.71 730.32 721.38 741.62
  Q 716.77 749.85 708.34 753.50
  C 695.40 759.10 682.17 753.99 675.34 741.79
  Q 670.76 733.62 673.18 723.95
  A 2.09 2.07 25.6 0 0 672.41 721.79
  L 663.00 714.69
  A 0.87 0.87 0.0 0 0 661.87 714.75
  Q 654.88 721.45 647.74 727.80
  C 617.64 754.54 577.54 770.50 537.75 775.99
  C 533.27 776.60 528.81 776.55 524.35 777.21
  Q 523.47 777.34 523.80 778.17
  Q 523.88 778.37 524.05 778.55
  Q 524.35 778.87 524.75 778.99
  C 533.86 781.75 540.81 791.27 543.10 799.90
  Q 546.70 813.42 537.23 824.58
  C 529.79 833.36 520.26 836.10 509.10 834.73
  C 498.16 833.39 488.63 823.35 485.78 813.49
  C 482.72 802.88 488.29 789.59 496.80 783.08
  Q 499.85 780.76 506.49 778.17
  Q 507.28 777.86 506.48 777.58
  Z
  M 508.12 262.93
  Q 499.09 267.45 499.47 277.44
  Q 499.67 282.44 501.94 285.64
  C 506.29 291.77 513.54 294.19 520.42 291.14
  Q 528.87 287.39 530.44 278.59
  Q 530.92 272.93 527.77 268.75
  Q 524.73 264.72 521.43 262.80
  Q 515.91 259.58 508.12 262.93
  Z
  M 428.11 401.82
  Q 422.74 412.35 418.91 424.63
  Q 418.77 425.07 419.07 425.41
  Q 425.58 432.89 432.40 440.11
  Q 433.66 441.43 435.49 441.77
  Q 470.23 448.09 505.57 448.28
  Q 506.53 448.29 506.54 447.33
  L 507.03 342.80
  A 0.27 0.27 0.0 0 0 506.75 342.53
  Q 490.53 343.52 473.97 348.17
  Q 472.43 348.60 471.11 349.82
  Q 464.60 355.86 458.22 361.74
  Q 439.99 378.56 428.11 401.82
  Z
  M 611.56 424.17
  C 607.56 411.82 602.12 399.28 594.85 388.76
  Q 583.82 372.81 569.93 359.92
  Q 563.71 354.15 557.93 348.68
  A 2.65 2.64 72.3 0 0 556.64 348.01
  Q 540.47 344.74 524.32 342.75
  Q 523.91 342.70 523.91 343.11
  L 523.71 447.77
  A 0.62 0.62 0.0 0 0 524.32 448.39
  C 547.18 448.62 568.38 445.50 592.40 442.16
  Q 594.27 441.90 595.57 440.62
  Q 603.26 433.04 611.22 425.53
  A 1.31 1.31 0.0 0 0 611.56 424.17
  Z
  M 326.05 351.41
  Q 325.22 351.55 324.60 352.10
  C 318.70 357.29 319.82 365.87 325.63 370.57
  Q 327.38 371.99 329.25 372.06
  Q 339.58 372.46 342.47 363.43
  Q 343.97 354.16 336.04 350.42
  Q 330.80 347.96 326.05 351.41
  Z
  M 693.39 351.72
  Q 692.86 351.52 692.00 352.21
  Q 688.32 355.16 688.22 359.30
  Q 688.06 366.18 692.29 369.63
  Q 695.80 372.50 700.63 371.76
  Q 705.76 370.99 708.11 365.86
  Q 710.80 362.41 709.99 359.02
  Q 707.66 349.30 697.26 349.99
  Q 694.61 350.17 693.39 351.72
  Z
  M 421.94 367.39
  Q 409.51 374.24 398.26 382.79
  Q 391.68 387.78 385.43 393.00
  A 0.39 0.38 -43.5 0 0 385.41 393.57
  L 395.41 403.20
  L 404.32 412.18
  A 0.39 0.38 -57.3 0 0 404.95 412.04
  Q 415.64 383.04 435.54 360.87
  Q 436.63 359.66 435.19 360.42
  L 421.94 367.39
  Z
  M 645.56 393.42
  C 631.09 380.16 613.81 368.96 595.19 361.32
  A 0.31 0.30 -11.9 0 0 594.86 361.82
  C 597.32 364.10 599.55 366.54 601.62 369.24
  Q 612.50 383.39 620.32 399.48
  Q 623.31 405.64 625.36 411.69
  A 0.45 0.45 0.0 0 0 626.08 411.88
  L 645.55 394.73
  A 0.88 0.88 0.0 0 0 645.56 393.42
  Z
  M 376.56 434.50
  L 394.05 439.53
  A 0.59 0.58 -73.3 0 0 394.77 439.14
  L 397.58 429.55
  A 0.57 0.56 29.3 0 0 397.41 428.97
  L 382.49 415.67
  L 372.70 405.77
  A 0.65 0.65 0.0 0 0 371.74 405.81
  Q 362.85 416.29 354.89 427.15
  A 0.68 0.67 -63.7 0 0 355.24 428.20
  L 376.56 434.50
  Z
  M 636.79 439.26
  C 649.62 434.40 663.31 431.27 676.67 428.82
  A 0.68 0.68 0.0 0 0 677.07 427.71
  L 659.30 406.42
  Q 658.86 405.90 658.38 406.38
  C 650.46 414.30 641.82 420.96 633.20 428.08
  Q 632.73 428.46 632.90 429.04
  L 635.78 438.76
  A 0.77 0.76 71.0 0 0 636.79 439.26
  Z
  M 378.17 477.58
  L 386.72 480.22
  A 0.54 0.54 0.0 0 0 387.42 479.71
  Q 387.52 468.22 389.65 456.79
  Q 389.76 456.20 389.18 456.03
  L 377.28 452.49
  L 344.57 443.70
  Q 343.57 443.43 343.04 444.32
  Q 322.90 478.38 317.19 517.26
  Q 317.09 517.90 317.74 517.79
  C 327.71 516.10 337.59 513.74 347.67 513.22
  A 0.95 0.95 0.0 0 0 348.58 512.26
  Q 348.32 495.98 348.71 478.63
  C 348.84 472.83 352.13 469.47 358.23 471.34
  Q 368.22 474.41 378.17 477.58
  Z
  M 696.82 461.97
  Q 692.41 452.54 687.24 444.21
  Q 687.00 443.83 686.57 443.93
  C 681.19 445.11 675.68 446.20 670.49 447.55
  Q 656.07 451.31 641.27 454.98
  Q 640.67 455.13 640.80 455.74
  Q 643.44 468.28 643.25 479.99
  Q 643.24 480.64 643.87 480.46
  Q 656.81 476.77 670.28 472.01
  Q 674.81 470.41 677.16 471.12
  Q 681.96 472.58 681.92 478.28
  Q 681.79 494.69 681.95 511.59
  Q 681.96 512.57 682.94 512.64
  Q 697.27 513.70 712.52 517.81
  Q 713.09 517.96 713.15 517.37
  Q 713.34 515.71 713.09 514.12
  Q 708.85 487.66 696.82 461.97
  Z
  M 406.03 464.98
  Q 405.81 465.01 405.62 465.28
  Q 405.47 465.50 405.46 465.77
  Q 405.36 469.33 404.80 472.64
  A 0.86 0.84 28.0 0 0 405.03 473.37
  L 405.29 473.64
  Q 404.59 473.86 404.59 474.39
  Q 404.50 479.50 404.01 484.46
  A 0.80 0.79 -81.9 0 0 404.66 485.33
  Q 409.36 486.18 413.85 487.84
  Q 417.87 489.33 422.07 490.58
  Q 426.24 491.83 430.29 493.37
  L 447.82 498.44
  L 460.49 502.70
  L 494.71 513.77
  Q 495.87 514.14 495.15 513.16
  Q 492.75 509.94 489.19 507.15
  Q 488.86 506.90 488.45 506.91
  Q 488.17 506.92 487.95 506.82
  Q 488.16 506.52 487.83 506.18
  Q 474.66 492.22 458.99 482.79
  Q 434.24 467.91 407.68 457.21
  A 1.04 1.04 0.0 0 0 406.25 458.24
  Q 406.44 461.18 405.71 463.74
  Q 405.59 464.16 406.03 464.98
  Z
  M 540.76 507.70
  Q 537.16 509.81 534.13 514.06
  Q 533.69 514.68 534.40 514.42
  Q 542.62 511.44 550.71 509.13
  C 558.71 506.84 566.48 503.73 574.77 501.06
  Q 575.79 500.73 575.83 499.56
  Q 575.88 499.72 575.93 499.83
  Q 576.07 500.16 576.41 500.06
  Q 601.40 493.18 626.09 485.39
  A 1.42 1.41 -11.2 0 0 627.08 483.92
  L 626.19 473.49
  Q 626.38 469.86 625.23 466.09
  L 624.18 458.57
  A 1.25 1.24 74.6 0 0 622.46 457.59
  Q 611.69 462.24 600.76 466.77
  Q 593.36 469.85 579.18 477.42
  C 575.78 479.23 572.85 481.71 569.25 483.54
  Q 566.96 484.70 561.36 489.14
  Q 548.17 499.62 540.76 507.70
  Z
  M 565.77 465.97
  Q 567.92 464.77 570.06 463.47
  Q 571.04 462.87 569.90 463.00
  Q 547.59 465.66 524.58 465.63
  Q 523.94 465.63 523.94 466.26
  L 523.68 500.25
  Q 523.67 501.95 524.68 500.59
  C 535.26 486.33 550.30 474.56 565.77 465.97
  Z
  M 464.55 466.08
  Q 480.10 474.81 493.20 486.64
  C 497.88 490.86 502.00 495.59 506.39 500.00
  Q 506.93 500.55 506.93 499.78
  L 506.93 465.99
  A 0.17 0.17 0.0 0 0 506.76 465.82
  Q 485.30 465.49 461.38 463.48
  Q 460.37 463.40 461.20 463.98
  Q 462.77 465.08 464.55 466.08
  Z
  M 364.97 500.37
  L 364.94 508.28
  L 365.13 682.71
  Q 365.13 683.04 365.44 683.14
  Q 408.40 697.24 451.38 711.45
  C 469.71 717.51 488.36 723.24 506.52 729.15
  A 0.37 0.37 0.0 0 0 507.01 728.80
  L 506.98 543.79
  L 506.77 535.53
  Q 506.76 535.01 506.27 534.86
  L 494.46 531.13
  C 487.96 529.35 481.55 527.63 475.24 525.47
  C 468.94 523.31 462.31 520.91 455.80 519.56
  Q 452.70 518.92 449.00 517.50
  Q 446.21 516.42 442.50 515.56
  Q 441.14 515.24 436.66 513.62
  Q 433.68 512.54 430.55 512.45
  Q 428.20 510.92 425.05 510.90
  Q 424.86 510.33 424.49 509.95
  Q 422.11 508.90 421.99 509.84
  Q 421.93 509.85 421.87 509.86
  Q 420.62 509.56 421.40 509.51
  Q 420.77 508.16 419.73 508.82
  L 411.54 506.75
  Q 410.80 506.13 409.65 505.96
  L 397.51 501.86
  Q 397.20 500.75 396.26 500.65
  Q 394.40 500.45 393.39 499.87
  Q 392.28 499.23 391.23 499.87
  Q 390.39 499.76 390.33 499.50
  Q 389.84 498.43 388.49 498.60
  C 387.03 498.78 386.49 497.80 385.45 497.47
  Q 383.43 496.84 381.28 496.63
  Q 380.51 496.55 380.20 496.35
  Q 378.12 494.89 375.51 494.59
  Q 375.19 494.55 375.05 495.15
  L 374.23 494.92
  Q 373.96 494.77 373.69 494.28
  A 0.99 0.98 -6.8 0 0 373.10 493.82
  L 365.77 491.76
  Q 365.07 491.56 365.07 492.29
  L 364.97 500.37
  Z
  M 523.84 543.31
  L 523.50 725.21
  L 523.64 728.41
  A 0.38 0.38 0.0 0 0 524.14 728.75
  Q 562.91 716.48 601.96 704.19
  C 623.05 697.55 644.04 690.42 665.08 684.53
  A 0.48 0.48 0.0 0 0 665.43 684.07
  L 665.35 502.60
  L 665.08 492.21
  Q 665.06 491.62 664.49 491.80
  C 657.20 494.13 649.58 495.97 642.52 498.20
  Q 616.08 506.54 590.10 514.24
  C 568.23 520.72 546.60 527.87 524.70 534.52
  A 1.27 1.25 81.7 0 0 523.81 535.73
  L 523.84 543.31
  Z
  M 242.76 523.02
  Q 236.35 526.11 236.08 532.91
  C 235.88 538.05 238.41 542.61 242.69 545.12
  C 249.67 549.21 256.98 545.78 260.49 539.01
  Q 260.93 538.16 260.54 537.57
  Q 261.15 537.70 261.32 536.74
  Q 263.30 525.56 252.80 521.65
  Q 248.12 519.90 242.76 523.02
  Z
  M 775.98 522.81
  Q 775.41 522.59 774.90 522.92
  Q 768.80 526.82 768.68 532.95
  C 768.61 541.38 775.04 548.31 783.74 546.80
  Q 787.96 546.07 790.45 543.60
  Q 793.42 540.84 794.14 537.68
  Q 796.28 528.58 789.39 523.58
  Q 783.87 519.56 776.65 521.88
  Q 776.29 522.00 775.98 522.81
  Z
  M 715.11 554.63
  Q 715.38 545.67 715.17 536.41
  Q 715.16 535.86 714.62 535.80
  C 712.03 535.50 709.48 535.09 706.95 534.52
  Q 694.70 531.72 682.63 529.97
  Q 681.93 529.87 681.93 530.57
  L 681.75 598.74
  A 0.74 0.73 0.0 0 0 682.49 599.47
  L 708.11 599.49
  Q 708.33 599.49 708.39 599.28
  Q 714.44 576.96 715.11 554.63
  Z
  M 334.95 532.10
  L 316.30 535.39
  Q 315.79 535.48 315.78 536.01
  Q 315.49 556.84 316.40 567.43
  Q 317.76 583.10 322.16 599.16
  A 0.32 0.31 81.2 0 0 322.46 599.39
  L 344.86 599.37
  L 347.65 599.42
  Q 348.38 599.43 348.38 598.69
  L 348.45 531.10
  Q 348.45 530.13 347.49 530.27
  L 334.95 532.10
  Z
  M 257.48 605.17
  C 251.00 608.27 255.13 618.29 261.75 618.28
  Q 264.79 618.28 266.74 616.96
  Q 270.75 614.25 269.66 609.52
  Q 268.33 603.68 263.25 602.72
  Q 259.80 602.06 257.48 605.17
  Z
  M 764.80 603.75
  C 760.16 605.82 758.58 611.51 761.68 615.36
  Q 763.33 617.42 766.50 618.10
  Q 773.65 619.63 775.60 611.02
  L 774.69 608.82
  Q 774.53 606.44 771.77 605.13
  Q 770.01 603.64 767.75 603.18
  Q 766.64 602.31 764.80 603.75
  Z
  M 347.93 616.39
  Q 338.26 617.03 327.27 616.64
  A 0.19 0.19 0.0 0 0 327.08 616.89
  C 332.51 631.52 338.66 646.67 347.73 659.33
  Q 348.66 660.63 348.66 659.04
  L 348.49 616.91
  A 0.52 0.52 0.0 0 0 347.93 616.39
  Z
  M 682.16 661.63
  C 691.02 648.07 698.38 633.07 703.70 617.73
  Q 704.08 616.63 702.91 616.63
  L 682.25 616.66
  Q 681.66 616.66 681.66 617.25
  L 681.68 661.49
  Q 681.68 662.38 682.16 661.63
  Z
  M 444.25 745.28
  Q 464.20 754.10 483.95 757.17
  Q 494.93 758.88 506.23 760.18
  A 0.49 0.48 3.2 0 0 506.77 759.70
  L 506.75 746.58
  A 0.79 0.79 0.0 0 0 506.15 745.81
  Q 489.51 741.44 477.75 737.72
  Q 457.95 731.46 435.10 724.18
  C 420.23 719.44 405.45 714.18 390.83 709.36
  Q 387.26 708.18 390.15 710.58
  Q 399.13 718.02 409.25 725.42
  Q 424.46 736.53 444.25 745.28
  Z
  M 624.71 714.38
  C 615.23 717.30 605.87 720.56 596.40 723.42
  C 585.10 726.83 572.16 731.48 562.48 734.45
  Q 544.38 739.99 525.07 744.99
  A 1.77 1.76 -7.6 0 0 523.75 746.71
  L 523.77 759.29
  Q 523.77 760.04 524.52 759.98
  C 539.63 758.73 554.01 756.50 567.69 751.76
  Q 573.53 749.73 579.41 747.63
  Q 587.01 744.92 596.91 740.00
  C 612.07 732.48 626.24 722.45 638.90 712.10
  Q 640.34 710.92 641.27 709.75
  Q 641.97 708.88 640.91 709.22
  Q 633.09 711.79 624.71 714.38
  Z
  M 693.67 720.96
  Q 686.64 724.45 688.08 731.99
  Q 689.10 737.35 693.25 738.98
  Q 702.44 742.59 707.51 733.73
  Q 707.92 733.01 707.73 732.31
  Q 708.13 732.23 708.16 732.01
  Q 709.27 725.10 703.83 721.17
  Q 699.16 717.80 693.67 720.96
  Z
  M 326.75 721.76
  Q 325.97 721.05 324.61 722.61
  Q 322.81 724.68 322.35 727.54
  C 321.01 735.87 327.81 742.67 336.17 739.13
  Q 340.62 737.25 341.40 733.61
  Q 342.78 730.36 342.18 728.48
  Q 338.93 718.33 328.32 720.26
  Q 327.49 720.41 326.75 721.76
  Z
  M 508.66 795.27
  Q 507.75 795.22 506.64 796.16
  C 500.96 800.96 499.03 809.67 504.81 815.34
  C 508.66 819.11 514.04 820.88 519.21 818.76
  Q 524.15 816.73 526.59 811.31
  Q 528.25 808.28 527.79 805.00
  Q 526.97 799.25 522.29 795.92
  Q 515.61 791.16 508.66 795.27
  Z"
/>
<path fill="#55c5fb" d="
  M 508.12 262.93
  Q 509.72 263.86 511.78 264.17
  Q 514.40 264.57 515.46 265.06
  C 521.90 268.02 524.25 272.43 527.97 278.02
  Q 528.58 278.94 530.44 278.59
  Q 528.87 287.39 520.42 291.14
  C 513.54 294.19 506.29 291.77 501.94 285.64
  Q 499.67 282.44 499.47 277.44
  Q 499.09 267.45 508.12 262.93
  Z"
/>
<rect fill="#1a3337" x="-11.60" y="-6.84" transform="translate(448.72,287.97) rotate(-16.7)" width="23.20" height="13.68" rx="6.46"/>
<rect fill="#1a3337" x="-12.35" y="-6.50" transform="translate(582.08,289.06) rotate(20.1)" width="24.70" height="13.00" rx="6.19"/>
<ellipse fill="#1a3337" cx="0.00" cy="0.00" transform="translate(412.67,302.57) rotate(-28.7)" rx="9.50" ry="7.30"/>
<ellipse fill="#1a3337" cx="0.00" cy="0.00" transform="translate(617.89,302.79) rotate(27.2)" rx="9.86" ry="7.35"/>
<rect fill="#1a3337" x="-15.45" y="-6.53" transform="translate(378.50,320.92) rotate(-35.5)" width="30.90" height="13.06" rx="6.29"/>
<rect fill="#1a3337" x="-14.09" y="-6.70" transform="translate(650.48,320.29) rotate(35.9)" width="28.18" height="13.40" rx="6.44"/>
<path fill="#c0d892" d="
  M 428.11 401.82
  Q 439.99 378.56 458.22 361.74
  Q 464.60 355.86 471.11 349.82
  Q 472.43 348.60 473.97 348.17
  Q 490.53 343.52 506.75 342.53
  A 0.27 0.27 0.0 0 1 507.03 342.80
  L 506.54 447.33
  Q 506.53 448.29 505.57 448.28
  Q 470.23 448.09 435.49 441.77
  Q 433.66 441.43 432.40 440.11
  Q 425.58 432.89 419.07 425.41
  Q 418.77 425.07 418.91 424.63
  Q 422.74 412.35 428.11 401.82
  Z"
/>
<path fill="#c0d892" d="
  M 594.85 388.76
  C 602.12 399.28 607.56 411.82 611.56 424.17
  A 1.31 1.31 0.0 0 1 611.22 425.53
  Q 603.26 433.04 595.57 440.62
  Q 594.27 441.90 592.40 442.16
  C 568.38 445.50 547.18 448.62 524.32 448.39
  A 0.62 0.62 0.0 0 1 523.71 447.77
  L 523.91 343.11
  Q 523.91 342.70 524.32 342.75
  Q 540.47 344.74 556.64 348.01
  A 2.65 2.64 72.3 0 1 557.93 348.68
  Q 563.71 354.15 569.93 359.92
  Q 583.82 372.81 594.85 388.76
  Z"
/>
<path fill="#55c5fb" d="
  M 326.05 351.41
  Q 326.55 351.98 327.02 351.97
  Q 331.51 351.82 334.41 355.31
  Q 337.36 358.86 340.35 362.41
  Q 340.86 363.01 342.47 363.43
  Q 339.58 372.46 329.25 372.06
  Q 327.38 371.99 325.63 370.57
  C 319.82 365.87 318.70 357.29 324.60 352.10
  Q 325.22 351.55 326.05 351.41
  Z"
/>
<path fill="#f8934b" d="
  M 693.39 351.72
  Q 693.63 352.15 694.00 352.23
  Q 704.93 354.81 708.11 365.86
  Q 705.76 370.99 700.63 371.76
  Q 695.80 372.50 692.29 369.63
  Q 688.06 366.18 688.22 359.30
  Q 688.32 355.16 692.00 352.21
  Q 692.86 351.52 693.39 351.72
  Z"
/>
<path fill="#c0d892" d="
  M 395.41 403.20
  Q 397.47 400.10 399.84 397.28
  Q 403.71 392.65 404.53 391.59
  Q 410.62 383.64 416.25 376.32
  C 417.64 374.50 419.29 373.13 420.64 371.36
  Q 421.24 370.57 421.46 369.46
  Q 421.65 368.48 421.94 367.39
  L 435.19 360.42
  Q 436.63 359.66 435.54 360.87
  Q 415.64 383.04 404.95 412.04
  A 0.39 0.38 -57.3 0 1 404.32 412.18
  L 395.41 403.20
  Z"
/>
<path fill="#c0d892" d="
  M 595.19 361.32
  C 613.81 368.96 631.09 380.16 645.56 393.42
  A 0.88 0.88 0.0 0 1 645.55 394.73
  L 626.08 411.88
  A 0.45 0.45 0.0 0 1 625.36 411.69
  Q 623.31 405.64 620.32 399.48
  Q 612.50 383.39 601.62 369.24
  C 599.55 366.54 597.32 364.10 594.86 361.82
  A 0.31 0.30 -11.9 0 1 595.19 361.32
  Z"
/>
<path fill="#8dae58" d="
  M 421.94 367.39
  Q 421.65 368.48 421.46 369.46
  Q 421.24 370.57 420.64 371.36
  C 419.29 373.13 417.64 374.50 416.25 376.32
  Q 410.62 383.64 404.53 391.59
  Q 403.71 392.65 399.84 397.28
  Q 397.47 400.10 395.41 403.20
  L 385.41 393.57
  A 0.39 0.38 -43.5 0 1 385.43 393.00
  Q 391.68 387.78 398.26 382.79
  Q 409.51 374.24 421.94 367.39
  Z"
/>
<ellipse fill="#1a3337" cx="0.00" cy="0.00" transform="translate(736.35,402.78) rotate(62.7)" rx="10.50" ry="7.26"/>
<path fill="#1a3337" d="
  M 286.01 408.74
  C 284.27 405.26 286.62 400.51 288.42 397.49
  Q 291.62 392.15 298.01 393.56
  Q 300.94 394.21 301.91 396.66
  C 303.86 401.61 299.49 409.49 295.23 412.07
  C 291.84 414.11 287.64 412.01 286.01 408.74
  Z"
/>
<path fill="#8dae58" d="
  M 382.49 415.67
  L 376.56 434.50
  L 355.24 428.20
  A 0.68 0.67 -63.7 0 1 354.89 427.15
  Q 362.85 416.29 371.74 405.81
  A 0.65 0.65 0.0 0 1 372.70 405.77
  L 382.49 415.67
  Z"
/>
<path fill="#c0d892" d="
  M 636.79 439.26
  A 0.77 0.76 71.0 0 1 635.78 438.76
  L 632.90 429.04
  Q 632.73 428.46 633.20 428.08
  C 641.82 420.96 650.46 414.30 658.38 406.38
  Q 658.86 405.90 659.30 406.42
  L 677.07 427.71
  A 0.68 0.68 0.0 0 1 676.67 428.82
  C 663.31 431.27 649.62 434.40 636.79 439.26
  Z"
/>
<path fill="#c0d892" d="
  M 382.49 415.67
  L 397.41 428.97
  A 0.57 0.56 29.3 0 1 397.58 429.55
  L 394.77 439.14
  A 0.59 0.58 -73.3 0 1 394.05 439.53
  L 376.56 434.50
  L 382.49 415.67
  Z"
/>
<rect fill="#1a3337" x="-7.36" y="-8.96" transform="translate(278.13,431.14) rotate(21.3)" width="14.72" height="17.92" rx="6.83"/>
<ellipse fill="#1a3337" cx="0.00" cy="0.00" transform="translate(751.94,431.24) rotate(72.0)" rx="9.22" ry="7.70"/>
<path fill="#8dae58" d="
  M 377.28 452.49
  Q 375.83 462.73 376.50 469.76
  Q 376.70 471.84 378.47 475.04
  Q 378.70 475.46 378.47 475.90
  Q 378.03 476.71 378.17 477.58
  Q 368.22 474.41 358.23 471.34
  C 352.13 469.47 348.84 472.83 348.71 478.63
  Q 348.32 495.98 348.58 512.26
  A 0.95 0.95 0.0 0 1 347.67 513.22
  C 337.59 513.74 327.71 516.10 317.74 517.79
  Q 317.09 517.90 317.19 517.26
  Q 322.90 478.38 343.04 444.32
  Q 343.57 443.43 344.57 443.70
  L 377.28 452.49
  Z"
/>
<path fill="#c0d892" d="
  M 696.82 461.97
  Q 708.85 487.66 713.09 514.12
  Q 713.34 515.71 713.15 517.37
  Q 713.09 517.96 712.52 517.81
  Q 697.27 513.70 682.94 512.64
  Q 681.96 512.57 681.95 511.59
  Q 681.79 494.69 681.92 478.28
  Q 681.96 472.58 677.16 471.12
  Q 674.81 470.41 670.28 472.01
  Q 656.81 476.77 643.87 480.46
  Q 643.24 480.64 643.25 479.99
  Q 643.44 468.28 640.80 455.74
  Q 640.67 455.13 641.27 454.98
  Q 656.07 451.31 670.49 447.55
  C 675.68 446.20 681.19 445.11 686.57 443.93
  Q 687.00 443.83 687.24 444.21
  Q 692.41 452.54 696.82 461.97
  Z"
/>
<path fill="#1a3337" d="
  M 285.18 471.97
  A 22.57 22.57 0.0 0 1 262.61 494.54
  A 22.57 22.57 0.0 0 1 240.04 471.97
  A 22.57 22.57 0.0 0 1 262.61 449.40
  A 22.57 22.57 0.0 0 1 285.18 471.97
  Z
  M 264.8676 479.0852
  A 7.17 6.87 71.9 0 0 269.1700 470.1357
  A 7.17 6.87 71.9 0 0 260.4124 465.4548
  A 7.17 6.87 71.9 0 0 256.1100 474.4043
  A 7.17 6.87 71.9 0 0 264.8676 479.0852
  Z"
/>
<path fill="#1a3337" d="
  M 770.9153 494.3329
  A 22.83 22.49 78.9 0 1 744.4507 476.2598
  A 22.83 22.49 78.9 0 1 762.1247 449.5271
  A 22.83 22.49 78.9 0 1 788.5893 467.6002
  A 22.83 22.49 78.9 0 1 770.9153 494.3329
  Z
  M 761.77 466.98
  Q 758.42 470.60 760.25 474.80
  C 761.96 478.76 765.58 480.46 769.61 478.36
  Q 772.52 476.85 773.40 473.70
  Q 771.76 462.06 761.77 466.98
  Z"
/>
<path fill="#c0d892" d="
  M 377.28 452.49
  L 389.18 456.03
  Q 389.76 456.20 389.65 456.79
  Q 387.52 468.22 387.42 479.71
  A 0.54 0.54 0.0 0 1 386.72 480.22
  L 378.17 477.58
  Q 378.03 476.71 378.47 475.90
  Q 378.70 475.46 378.47 475.04
  Q 376.70 471.84 376.50 469.76
  Q 375.83 462.73 377.28 452.49
  Z"
/>
<path fill="#c0d892" d="
  M 565.77 465.97
  C 550.30 474.56 535.26 486.33 524.68 500.59
  Q 523.67 501.95 523.68 500.25
  L 523.94 466.26
  Q 523.94 465.63 524.58 465.63
  Q 547.59 465.66 569.90 463.00
  Q 571.04 462.87 570.06 463.47
  Q 567.92 464.77 565.77 465.97
  Z"
/>
<path fill="#c0d892" d="
  M 464.55 466.08
  Q 462.77 465.08 461.20 463.98
  Q 460.37 463.40 461.38 463.48
  Q 485.30 465.49 506.76 465.82
  A 0.17 0.17 0.0 0 1 506.93 465.99
  L 506.93 499.78
  Q 506.93 500.55 506.39 500.00
  C 502.00 495.59 497.88 490.86 493.20 486.64
  Q 480.10 474.81 464.55 466.08
  Z"
/>
<path fill="#55c5fb" d="
  M 264.8676 479.0852
  A 7.17 6.87 71.9 0 1 256.1100 474.4043
  A 7.17 6.87 71.9 0 1 260.4124 465.4548
  A 7.17 6.87 71.9 0 1 269.1700 470.1357
  A 7.17 6.87 71.9 0 1 264.8676 479.0852
  Z
  M 263.7424 466.6306
  A 1.49 0.46 5.8 0 0 262.3065 466.0224
  A 1.49 0.46 5.8 0 0 260.7776 466.3294
  A 1.49 0.46 5.8 0 0 262.2135 466.9376
  A 1.49 0.46 5.8 0 0 263.7424 466.6306
  Z
  M 264.81 467.50
  Q 265.51 468.82 267.45 469.97
  A 0.26 0.25 15.1 0 0 267.84 469.75
  Q 267.75 467.25 265.38 466.73
  A 0.53 0.52 81.8 0 0 264.81 467.50
  Z"
/>
<path fill="#f8934b" d="
  M 406.03 464.98
  C 410.43 466.74 414.80 468.34 419.16 470.32
  Q 441.34 480.40 453.15 487.38
  Q 470.82 497.83 486.00 506.47
  Q 486.86 506.97 487.95 506.82
  Q 488.17 506.92 488.45 506.91
  Q 488.86 506.90 489.19 507.15
  Q 492.75 509.94 495.15 513.16
  Q 495.87 514.14 494.71 513.77
  L 460.49 502.70
  Q 458.39 499.70 453.64 499.23
  Q 451.80 497.91 449.60 497.07
  Q 447.12 496.13 445.56 494.96
  Q 438.66 489.79 426.97 483.87
  Q 416.03 478.33 406.38 473.87
  Q 405.86 473.63 405.29 473.64
  L 405.03 473.37
  A 0.86 0.84 28.0 0 1 404.80 472.64
  Q 405.36 469.33 405.46 465.77
  Q 405.47 465.50 405.62 465.28
  Q 405.81 465.01 406.03 464.98
  Z"
/>
<path fill="#f8934b" d="
  M 625.23 466.09
  Q 626.38 469.86 626.19 473.49
  Q 616.45 477.19 608.76 481.09
  Q 602.69 484.16 593.49 489.14
  Q 593.41 489.18 585.95 492.77
  Q 580.42 495.43 575.83 499.56
  Q 575.79 500.73 574.77 501.06
  C 566.48 503.73 558.71 506.84 550.71 509.13
  Q 542.62 511.44 534.40 514.42
  Q 533.69 514.68 534.13 514.06
  Q 537.16 509.81 540.76 507.70
  Q 552.60 502.60 563.10 495.68
  Q 569.23 491.63 573.67 489.29
  C 578.75 486.61 583.46 483.69 588.66 481.22
  C 595.32 478.06 601.52 474.07 608.52 471.66
  C 614.10 469.74 619.28 467.32 625.23 466.09
  Z"
/>
<path fill="#c0d892" d="
  M 761.77 466.98
  L 769.18 470.03
  Q 769.65 470.22 769.94 470.64
  Q 771.16 472.35 773.40 473.70
  Q 772.52 476.85 769.61 478.36
  C 765.58 480.46 761.96 478.76 760.25 474.80
  Q 758.42 470.60 761.77 466.98
  Z"
/>
<path fill="#fdcfa6" d="
  M 374.23 494.92
  Q 374.39 495.59 374.75 495.75
  Q 379.03 497.66 383.75 498.05
  Q 384.20 498.52 384.62 498.51
  Q 386.13 499.85 388.03 500.32
  Q 395.27 502.09 402.25 504.72
  Q 404.31 505.50 409.65 505.96
  Q 410.80 506.13 411.54 506.75
  Q 415.96 510.29 421.87 509.86
  Q 421.93 509.85 421.99 509.84
  L 424.49 509.95
  Q 424.86 510.33 425.05 510.90
  Q 427.12 512.79 430.55 512.45
  Q 433.68 512.54 436.66 513.62
  Q 441.14 515.24 442.50 515.56
  Q 446.21 516.42 449.00 517.50
  Q 452.70 518.92 455.80 519.56
  C 462.31 520.91 468.94 523.31 475.24 525.47
  C 481.55 527.63 487.96 529.35 494.46 531.13
  Q 492.25 534.62 493.25 537.69
  A 1.09 1.09 0.0 0 1 491.81 539.04
  Q 476.94 533.23 462.43 528.99
  Q 442.12 523.05 426.17 517.62
  Q 424.54 517.07 423.02 516.01
  Q 422.64 515.74 422.19 515.88
  Q 421.47 516.10 420.75 515.96
  Q 416.40 515.17 412.49 513.74
  Q 406.47 511.53 404.41 510.90
  Q 395.56 508.18 386.38 505.61
  Q 385.77 505.44 385.47 504.51
  L 388.33 504.40
  Q 389.41 504.36 388.44 503.87
  Q 386.34 502.82 384.35 504.09
  Q 381.29 504.39 378.02 502.88
  C 377.10 502.46 376.14 502.57 375.79 501.20
  Q 375.75 501.02 375.64 500.87
  Q 375.50 500.69 375.27 500.65
  Q 374.70 500.56 374.64 501.14
  Q 374.61 501.53 374.26 501.69
  Q 373.80 501.88 373.34 501.71
  Q 369.27 500.17 364.97 500.37
  L 365.07 492.29
  Q 365.07 491.56 365.77 491.76
  L 373.10 493.82
  A 0.99 0.98 -6.8 0 1 373.69 494.28
  Q 373.96 494.77 374.23 494.92
  Z
  M 417.3256 512.6962
  A 0.33 0.33 0.0 0 0 417.0721 512.3043
  L 409.3672 510.6525
  A 0.33 0.33 0.0 0 0 408.9753 510.9060
  L 408.9544 511.0038
  A 0.33 0.33 0.0 0 0 409.2079 511.3957
  L 416.9128 513.0475
  A 0.33 0.33 0.0 0 0 417.3047 512.7940
  L 417.3256 512.6962
  Z"
/>
<path fill="#fdcfa6" d="
  M 665.35 502.60
  Q 656.55 501.51 646.99 504.98
  Q 640.19 507.46 632.21 509.75
  C 621.13 512.93 611.53 516.42 601.25 519.51
  Q 587.15 523.75 536.70 538.65
  Q 532.36 539.79 528.87 540.76
  Q 527.61 541.11 526.31 541.92
  Q 525.08 542.69 523.84 543.31
  L 523.81 535.73
  A 1.27 1.25 81.7 0 1 524.70 534.52
  C 546.60 527.87 568.23 520.72 590.10 514.24
  Q 616.08 506.54 642.52 498.20
  C 649.58 495.97 657.20 494.13 664.49 491.80
  Q 665.06 491.62 665.08 492.21
  L 665.35 502.60
  Z"
/>
<path fill="#f8934b" d="
  M 430.29 493.37
  Q 433.34 494.13 436.41 494.70
  C 440.99 495.56 444.64 496.70 448.73 498.10
  Q 448.38 498.66 447.82 498.44
  L 430.29 493.37
  Z"
/>
<path fill="#8dae58" d="
  M 380.20 496.35
  L 375.05 495.15
  Q 375.19 494.55 375.51 494.59
  Q 378.12 494.89 380.20 496.35
  Z"
/>
<path fill="#8dae58" d="
  M 390.33 499.50
  C 388.24 499.36 386.69 498.03 384.62 498.51
  Q 384.20 498.52 383.75 498.05
  L 381.28 496.63
  Q 383.43 496.84 385.45 497.47
  C 386.49 497.80 387.03 498.78 388.49 498.60
  Q 389.84 498.43 390.33 499.50
  Z"
/>
<path fill="#fdcfa6" d="
  M 448.73 498.10
  Q 451.13 499.59 453.64 499.23
  Q 458.39 499.70 460.49 502.70
  L 447.82 498.44
  Q 448.38 498.66 448.73 498.10
  Z"
/>
<path fill="#8dae58" d="
  M 397.51 501.86
  L 391.23 499.87
  Q 392.28 499.23 393.39 499.87
  Q 394.40 500.45 396.26 500.65
  Q 397.20 500.75 397.51 501.86
  Z"
/>
<path fill="#ffad73" d="
  M 364.97 500.37
  Q 369.27 500.17 373.34 501.71
  Q 373.80 501.88 374.26 501.69
  Q 374.61 501.53 374.64 501.14
  Q 374.70 500.56 375.27 500.65
  Q 375.50 500.69 375.64 500.87
  Q 375.75 501.02 375.79 501.20
  C 376.14 502.57 377.10 502.46 378.02 502.88
  Q 381.29 504.39 384.35 504.09
  Q 385.17 504.14 385.47 504.51
  Q 385.77 505.44 386.38 505.61
  Q 395.56 508.18 404.41 510.90
  Q 406.47 511.53 412.49 513.74
  Q 416.40 515.17 420.75 515.96
  Q 421.47 516.10 422.19 515.88
  Q 422.64 515.74 423.02 516.01
  Q 424.54 517.07 426.17 517.62
  Q 442.12 523.05 462.43 528.99
  Q 476.94 533.23 491.81 539.04
  A 1.09 1.09 0.0 0 0 493.25 537.69
  Q 492.25 534.62 494.46 531.13
  L 506.27 534.86
  Q 506.76 535.01 506.77 535.53
  L 506.98 543.79
  Q 506.64 544.17 506.17 544.09
  C 505.48 543.96 505.14 542.88 504.17 542.56
  Q 499.24 540.94 494.24 539.31
  A 1.02 1.02 0.0 0 0 492.90 540.29
  L 492.92 651.46
  A 0.92 0.92 0.0 0 1 491.54 652.25
  Q 487.44 649.85 482.26 647.42
  Q 480.45 646.58 478.95 645.43
  A 0.89 0.88 -57.1 0 1 478.71 644.29
  C 480.90 640.43 481.59 635.01 477.12 632.25
  Q 471.20 628.59 465.24 624.67
  C 461.21 622.01 457.73 618.94 453.91 616.17
  Q 449.86 613.24 445.84 609.63
  Q 428.86 594.38 415.15 578.35
  Q 396.22 556.22 379.32 531.08
  Q 377.08 527.74 372.19 519.66
  Q 368.79 514.03 364.94 508.28
  L 364.97 500.37
  Z"
/>
<path fill="#ffad73" d="
  M 665.35 502.60
  L 665.43 684.07
  A 0.48 0.48 0.0 0 1 665.08 684.53
  C 644.04 690.42 623.05 697.55 601.96 704.19
  Q 562.91 716.48 524.14 728.75
  A 0.38 0.38 0.0 0 1 523.64 728.41
  L 523.50 725.21
  Q 528.62 724.93 532.80 723.05
  A 1.76 1.70 34.7 0 1 533.71 722.90
  Q 536.30 723.12 536.45 720.50
  C 536.99 711.47 536.34 702.29 536.42 693.33
  C 536.54 680.84 536.88 667.80 536.87 655.56
  Q 536.85 639.19 537.03 622.83
  C 537.16 611.69 536.77 599.25 536.98 587.44
  Q 537.19 576.27 537.09 567.49
  Q 536.94 553.14 536.70 538.65
  Q 587.15 523.75 601.25 519.51
  C 611.53 516.42 621.13 512.93 632.21 509.75
  Q 640.19 507.46 646.99 504.98
  Q 656.55 501.51 665.35 502.60
  Z
  M 577.30 600.29
  L 577.27 565.21
  A 1.02 0.99 83.0 0 1 578.02 564.23
  Q 592.38 560.56 607.53 555.69
  C 617.67 552.43 627.56 549.60 637.58 546.61
  C 645.43 544.26 646.06 533.85 638.05 531.27
  Q 635.90 530.58 633.90 531.17
  Q 607.04 539.23 583.44 546.32
  C 573.09 549.43 562.15 549.86 561.99 564.00
  Q 561.77 583.73 561.96 604.46
  Q 562.01 610.05 562.96 612.46
  C 564.54 616.48 569.33 619.56 573.80 618.24
  Q 609.79 607.65 635.84 600.13
  C 641.02 598.64 647.11 592.77 642.52 587.13
  Q 638.79 582.56 632.84 584.39
  Q 606.25 592.55 577.96 600.79
  A 0.52 0.52 0.0 0 1 577.30 600.29
  Z
  M 643.7790 562.4458
  A 7.76 7.76 0.0 0 0 634.0983 557.2768
  L 591.7880 570.1316
  A 7.76 7.76 0.0 0 0 586.6189 579.8123
  L 586.7410 580.2142
  A 7.76 7.76 0.0 0 0 596.4217 585.3832
  L 638.7320 572.5284
  A 7.76 7.76 0.0 0 0 643.9011 562.8477
  L 643.7790 562.4458
  Z"
/>
<path fill="#8dae58" d="
  M 421.40 509.51
  L 419.73 508.82
  Q 420.77 508.16 421.40 509.51
  Z"
/>
<path fill="#f8934b" d="
  M 364.94 508.28
  Q 368.79 514.03 372.19 519.66
  Q 377.08 527.74 379.32 531.08
  Q 396.22 556.22 415.15 578.35
  Q 428.86 594.38 445.84 609.63
  Q 449.86 613.24 453.91 616.17
  C 457.73 618.94 461.21 622.01 465.24 624.67
  Q 471.20 628.59 477.12 632.25
  C 481.59 635.01 480.90 640.43 478.71 644.29
  A 0.89 0.88 -57.1 0 0 478.95 645.43
  Q 480.45 646.58 482.26 647.42
  Q 487.44 649.85 491.54 652.25
  A 0.92 0.92 0.0 0 0 492.92 651.46
  L 492.90 540.29
  A 1.02 1.02 0.0 0 1 494.24 539.31
  Q 499.24 540.94 504.17 542.56
  C 505.14 542.88 505.48 543.96 506.17 544.09
  Q 506.64 544.17 506.98 543.79
  L 507.01 728.80
  A 0.37 0.37 0.0 0 1 506.52 729.15
  C 488.36 723.24 469.71 717.51 451.38 711.45
  Q 408.40 697.24 365.44 683.14
  Q 365.13 683.04 365.13 682.71
  L 364.94 508.28
  Z"
/>
<path fill="#8dae58" d="
  M 424.49 509.95
  L 421.99 509.84
  Q 422.11 508.90 424.49 509.95
  Z"
/>
<path fill="#ffad73" d="
  M 775.98 522.81
  C 780.29 524.58 783.70 525.42 787.01 529.51
  Q 790.25 533.50 794.14 537.68
  Q 793.42 540.84 790.45 543.60
  Q 788.27 543.07 783.25 542.43
  Q 774.84 541.35 768.68 532.95
  Q 768.80 526.82 774.90 522.92
  Q 775.41 522.59 775.98 522.81
  Z"
/>
<path fill="#f8934b" d="
  M 242.76 523.02
  C 251.60 524.06 255.97 528.86 259.32 536.42
  Q 259.50 536.82 260.54 537.57
  Q 260.93 538.16 260.49 539.01
  C 256.98 545.78 249.67 549.21 242.69 545.12
  C 238.41 542.61 235.88 538.05 236.08 532.91
  Q 236.35 526.11 242.76 523.02
  Z"
/>
<path fill="#c0d892" d="
  M 715.11 554.63
  Q 714.44 576.96 708.39 599.28
  Q 708.33 599.49 708.11 599.49
  L 682.49 599.47
  A 0.74 0.73 -0.0 0 1 681.75 598.74
  L 681.93 530.57
  Q 681.93 529.87 682.63 529.97
  Q 694.70 531.72 706.95 534.52
  C 709.48 535.09 712.03 535.50 714.62 535.80
  Q 715.16 535.86 715.17 536.41
  Q 715.38 545.67 715.11 554.63
  Z"
/>
<path fill="#c0d892" d="
  M 344.86 599.37
  Q 340.73 586.08 339.03 578.25
  Q 334.37 556.76 334.95 532.10
  L 347.49 530.27
  Q 348.45 530.13 348.45 531.10
  L 348.38 598.69
  Q 348.38 599.43 347.65 599.42
  L 344.86 599.37
  Z"
/>
<path fill="#1a3337" d="
  M 577.30 600.29
  A 0.52 0.52 0.0 0 0 577.96 600.79
  Q 606.25 592.55 632.84 584.39
  Q 638.79 582.56 642.52 587.13
  C 647.11 592.77 641.02 598.64 635.84 600.13
  Q 609.79 607.65 573.80 618.24
  C 569.33 619.56 564.54 616.48 562.96 612.46
  Q 562.01 610.05 561.96 604.46
  Q 561.77 583.73 561.99 564.00
  C 562.15 549.86 573.09 549.43 583.44 546.32
  Q 607.04 539.23 633.90 531.17
  Q 635.90 530.58 638.05 531.27
  C 646.06 533.85 645.43 544.26 637.58 546.61
  C 627.56 549.60 617.67 552.43 607.53 555.69
  Q 592.38 560.56 578.02 564.23
  A 1.02 0.99 83.0 0 0 577.27 565.21
  L 577.30 600.29
  Z"
/>
<path fill="#8dae58" d="
  M 334.95 532.10
  Q 334.37 556.76 339.03 578.25
  Q 340.73 586.08 344.86 599.37
  L 322.46 599.39
  A 0.32 0.31 81.2 0 1 322.16 599.16
  Q 317.76 583.10 316.40 567.43
  Q 315.49 556.84 315.78 536.01
  Q 315.79 535.48 316.30 535.39
  L 334.95 532.10
  Z"
/>
<path fill="#f8934b" d="
  M 768.68 532.95
  Q 774.84 541.35 783.25 542.43
  Q 788.27 543.07 790.45 543.60
  Q 787.96 546.07 783.74 546.80
  C 775.04 548.31 768.61 541.38 768.68 532.95
  Z"
/>
<path fill="#f8934b" d="
  M 536.70 538.65
  Q 536.94 553.14 537.09 567.49
  Q 537.19 576.27 536.98 587.44
  C 536.77 599.25 537.16 611.69 537.03 622.83
  Q 536.85 639.19 536.87 655.56
  C 536.88 667.80 536.54 680.84 536.42 693.33
  C 536.34 702.29 536.99 711.47 536.45 720.50
  Q 536.30 723.12 533.71 722.90
  A 1.76 1.70 34.7 0 0 532.80 723.05
  Q 528.62 724.93 523.50 725.21
  L 523.84 543.31
  Q 525.08 542.69 526.31 541.92
  Q 527.61 541.11 528.87 540.76
  Q 532.36 539.79 536.70 538.65
  Z"
/>
<rect fill="#1a3337" x="-29.87" y="-7.97" transform="translate(615.26,571.33) rotate(-16.9)" width="59.74" height="15.94" rx="7.76"/>
<path fill="#8dae58" d="
  M 767.75 603.18
  Q 766.08 603.16 765.06 604.45
  Q 765.11 603.67 764.80 603.75
  Q 766.64 602.31 767.75 603.18
  Z"
/>
<path fill="#c0d892" d="
  M 764.80 603.75
  Q 765.11 603.67 765.06 604.45
  L 775.60 611.02
  Q 773.65 619.63 766.50 618.10
  Q 763.33 617.42 761.68 615.36
  C 758.58 611.51 760.16 605.82 764.80 603.75
  Z"
/>
<path fill="#c0d892" d="
  M 269.66 609.52
  Q 270.75 614.25 266.74 616.96
  Q 264.79 618.28 261.75 618.28
  C 255.13 618.29 251.00 608.27 257.48 605.17
  C 261.45 604.75 265.11 607.95 268.47 610.38
  Q 268.91 610.69 269.27 610.29
  Q 269.50 610.03 269.66 609.52
  Z"
/>
<path fill="#c0d892" d="
  M 774.69 608.82
  L 771.77 605.13
  Q 774.53 606.44 774.69 608.82
  Z"
/>
<path fill="#8dae58" d="
  M 347.93 616.39
  A 0.52 0.52 0.0 0 1 348.49 616.91
  L 348.66 659.04
  Q 348.66 660.63 347.73 659.33
  C 338.66 646.67 332.51 631.52 327.08 616.89
  A 0.19 0.19 0.0 0 1 327.27 616.64
  Q 338.26 617.03 347.93 616.39
  Z"
/>
<path fill="#c0d892" d="
  M 703.70 617.73
  C 698.38 633.07 691.02 648.07 682.16 661.63
  Q 681.68 662.38 681.68 661.49
  L 681.66 617.25
  Q 681.66 616.66 682.25 616.66
  L 702.91 616.63
  Q 704.08 616.63 703.70 617.73
  Z"
/>
<ellipse fill="#1a3337" cx="0.00" cy="0.00" transform="translate(278.00,658.48) rotate(67.4)" rx="10.35" ry="7.47"/>
<ellipse fill="#1a3337" cx="0.00" cy="0.00" transform="translate(751.63,658.67) rotate(112.4)" rx="10.32" ry="7.46"/>
<ellipse fill="#1a3337" cx="0.00" cy="0.00" transform="translate(293.99,688.88) rotate(63.0)" rx="10.39" ry="7.42"/>
<ellipse fill="#1a3337" cx="0.00" cy="0.00" transform="translate(735.59,689.05) rotate(120.1)" rx="10.10" ry="7.40"/>
<path fill="#8dae58" d="
  M 444.25 745.28
  Q 424.46 736.53 409.25 725.42
  Q 399.13 718.02 390.15 710.58
  Q 387.26 708.18 390.83 709.36
  C 405.45 714.18 420.23 719.44 435.10 724.18
  Q 457.95 731.46 477.75 737.72
  Q 489.51 741.44 506.15 745.81
  A 0.79 0.79 0.0 0 1 506.75 746.58
  L 506.77 759.70
  A 0.49 0.48 3.2 0 1 506.23 760.18
  Q 494.93 758.88 483.95 757.17
  Q 464.20 754.10 444.25 745.28
  Z"
/>
<path fill="#8dae58" d="
  M 624.71 714.38
  Q 633.09 711.79 640.91 709.22
  Q 641.97 708.88 641.27 709.75
  Q 640.34 710.92 638.90 712.10
  C 626.24 722.45 612.07 732.48 596.91 740.00
  Q 587.01 744.92 579.41 747.63
  Q 573.53 749.73 567.69 751.76
  C 554.01 756.50 539.63 758.73 524.52 759.98
  Q 523.77 760.04 523.77 759.29
  L 523.75 746.71
  A 1.77 1.76 -7.6 0 1 525.07 744.99
  Q 544.38 739.99 562.48 734.45
  C 572.16 731.48 585.10 726.83 596.40 723.42
  C 605.87 720.56 615.23 717.30 624.71 714.38
  Z"
/>
<path fill="#55c5fb" d="
  M 693.67 720.96
  Q 697.77 723.36 701.63 725.62
  Q 704.35 727.22 706.66 731.57
  Q 706.90 732.01 707.73 732.31
  Q 707.92 733.01 707.51 733.73
  Q 702.44 742.59 693.25 738.98
  Q 689.10 737.35 688.08 731.99
  Q 686.64 724.45 693.67 720.96
  Z"
/>
<path fill="#c0d892" d="
  M 326.75 721.76
  Q 332.40 724.09 334.35 725.63
  Q 336.37 727.23 341.40 733.61
  Q 340.62 737.25 336.17 739.13
  C 327.81 742.67 321.01 735.87 322.35 727.54
  Q 322.81 724.68 324.61 722.61
  Q 325.97 721.05 326.75 721.76
  Z"
/>
<rect fill="#1a3337" x="-18.35" y="-6.55" transform="translate(376.64,772.99) rotate(36.7)" width="36.70" height="13.10" rx="6.35"/>
<ellipse fill="#1a3337" cx="0.00" cy="0.00" transform="translate(413.75,794.16) rotate(32.2)" rx="9.90" ry="7.46"/>
<path fill="#f8934b" d="
  M 508.66 795.27
  Q 510.22 795.89 511.91 796.29
  Q 513.92 796.77 515.05 797.42
  Q 522.77 801.80 525.50 810.48
  Q 525.72 811.18 526.59 811.31
  Q 524.15 816.73 519.21 818.76
  C 514.04 820.88 508.66 819.11 504.81 815.34
  C 499.03 809.67 500.96 800.96 506.64 796.16
  Q 507.75 795.22 508.66 795.27
  Z"
/>
<rect fill="#1a3337" x="-11.15" y="-6.89" transform="translate(449.74,807.42) rotate(15.7)" width="22.30" height="13.78" rx="6.49"/>
</svg>
