<?xml version="1.0" encoding="UTF-8" standalone="no"?>
<!DOCTYPE svg PUBLIC "-//W3C//DTD SVG 1.1//EN" "http://www.w3.org/Graphics/SVG/1.1/DTD/svg11.dtd">
<svg xmlns="http://www.w3.org/2000/svg" version="1.1" viewBox="0.00 0.00 1024.00 1024.00">
<g stroke-width="2.00" fill="none" stroke-linecap="butt">
<path stroke="#718f7e" vector-effect="non-scaling-stroke" d="
  M 505.45 271.73
  A 13.68 13.64 -53.9 0 0 507.08 282.23"
/>
<path stroke="#648375" vector-effect="non-scaling-stroke" d="
  M 507.08 282.23
  A 13.68 13.67 79.9 0 0 516.00 288.46
  A 13.67 13.67 0.0 0 0 530.99 281.09"
/>
<path stroke="#718f7e" vector-effect="non-scaling-stroke" d="
  M 530.99 281.09
  A 13.74 13.67 -34.6 0 0 532.34 273.80"
/>
<path stroke="#8c9a9c" vector-effect="non-scaling-stroke" d="
  M 532.34 273.80
  A 13.69 13.68 -75.2 0 0 526.57 263.87
  A 13.66 13.65 53.1 0 0 514.30 262.12
  A 13.68 13.67 -2.4 0 0 505.45 271.73"
/>
<path stroke="#e3f3df" vector-effect="non-scaling-stroke" d="
  M 532.34 273.80
  L 531.99 274.98
  Q 531.79 275.64 531.57 274.98
  Q 529.18 267.84 523.88 266.58
  Q 513.98 264.23 505.45 271.73"
/>
<path stroke="#bcdcb9" vector-effect="non-scaling-stroke" d="
  M 530.99 281.09
  Q 524.39 280.67 514.75 280.89
  Q 510.37 280.99 507.08 282.23"
/>
<path stroke="#8c9a9c" vector-effect="non-scaling-stroke" d="
  M 480.01 288.67
  Q 478.19 288.37 476.94 289.20"
/>
<path stroke="#648375" vector-effect="non-scaling-stroke" d="
  M 476.94 289.20
  Q 475.71 289.14 474.28 289.76"
/>
<path stroke="#8c9a9c" vector-effect="non-scaling-stroke" d="
  M 474.28 289.76
  Q 455.05 295.26 443.11 300.62
  Q 422.88 309.70 401.39 325.63
  Q 385.40 337.49 372.37 352.78"
/>
<path stroke="#718f7e" vector-effect="non-scaling-stroke" d="
  M 372.37 352.78
  C 371.14 354.06 370.34 355.67 371.00 357.47
  Q 372.01 360.24 372.57 362.90
  Q 372.64 363.26 373.00 363.26
  L 412.97 363.23
  Q 413.56 363.23 413.84 362.72
  C 430.92 331.69 460.07 308.53 491.75 292.77
  Q 492.48 292.41 492.01 291.75
  Q 491.26 290.69 490.39 289.41
  Q 490.19 289.12 490.03 289.43
  Q 489.94 289.60 489.90 290.02"
/>
<path stroke="#e3f3df" vector-effect="non-scaling-stroke" d="
  M 488.95 290.38
  Q 489.44 290.84 488.66 291.46
  Q 488.25 291.78 487.76 291.86
  C 485.89 292.18 484.03 292.31 482.26 293.09
  Q 478.79 294.61 474.88 295.56
  Q 459.68 299.26 445.96 305.24
  Q 424.18 314.74 404.20 327.76
  Q 394.11 334.34 384.53 342.55
  Q 381.80 344.89 379.34 347.49
  Q 377.07 349.89 374.82 352.31
  Q 373.41 353.82 372.37 352.78"
/>
<path stroke="#d7e7d7" vector-effect="non-scaling-stroke" d="
  M 474.28 289.76
  Q 475.63 289.76 477.02 289.95
  Q 477.50 290.01 476.94 289.20"
/>
<path stroke="#718f7e" vector-effect="non-scaling-stroke" d="
  M 547.05 290.45
  Q 545.81 290.90 546.06 292.01
  Q 546.17 292.49 546.61 292.73
  Q 551.50 295.48 556.86 298.42
  C 571.15 306.26 583.88 316.07 596.99 328.22
  Q 613.03 343.09 623.95 362.12
  A 1.74 1.73 -15.0 0 0 625.45 362.98
  L 663.22 363.04
  A 1.61 1.60 -81.8 0 0 664.76 361.88
  C 665.49 359.33 667.59 355.31 665.59 352.93
  Q 662.86 349.67 656.76 343.78"
/>
<path stroke="#8c9a9c" vector-effect="non-scaling-stroke" d="
  M 656.76 343.78
  Q 628.90 315.72 592.47 299.93"
/>
<path stroke="#648375" vector-effect="non-scaling-stroke" d="
  M 592.47 299.93
  L 578.04 293.82"
/>
<path stroke="#8c9a9c" vector-effect="non-scaling-stroke" d="
  M 578.04 293.82
  L 576.73 293.49"
/>
<path stroke="#718f7e" vector-effect="non-scaling-stroke" d="
  M 576.73 293.49
  Q 569.90 290.93 562.70 289.91"
/>
<path stroke="#e3f3df" vector-effect="non-scaling-stroke" d="
  M 555.97 291.59
  L 554.89 291.62
  Q 554.36 291.63 554.52 292.13
  Q 554.90 293.31 556.04 293.57
  Q 574.07 297.80 583.64 301.62
  C 599.01 307.76 613.86 314.79 628.19 323.34
  Q 633.57 326.55 647.15 337.32
  Q 649.49 339.18 655.70 345.38
  Q 655.92 345.60 656.27 345.65
  Q 656.48 345.68 656.66 345.61
  Q 657.14 345.43 657.02 344.93
  L 656.76 343.78"
/>
<path stroke="#e3f3df" vector-effect="non-scaling-stroke" d="
  M 576.73 293.49
  C 575.43 293.42 574.42 294.05 573.41 294.04
  Q 571.87 294.02 571.09 293.32"
/>
<path stroke="#d7e7d7" vector-effect="non-scaling-stroke" d="
  M 578.04 293.82
  L 579.08 295.83"
/>
<path stroke="#d7e7d7" vector-effect="non-scaling-stroke" d="
  M 585.55 298.20
  L 586.65 297.95
  Q 587.13 297.84 587.47 298.19
  L 589.27 300.02"
/>
<path stroke="#d7e7d7" vector-effect="non-scaling-stroke" d="
  M 592.25 300.59
  Q 592.32 299.85 592.47 299.93"
/>
<path stroke="#718f7e" vector-effect="non-scaling-stroke" d="
  M 527.54 313.71
  L 527.50 347.65
  A 1.65 1.64 9.1 0 0 528.65 349.23
  Q 540.12 352.88 546.54 362.75
  Q 546.84 363.20 547.38 363.21
  Q 575.38 363.35 602.83 363.19
  Q 603.45 363.18 604.06 363.01
  Q 604.67 362.83 604.29 362.31
  Q 591.26 344.76 574.29 331.04"
/>
<path stroke="#8c9a9c" vector-effect="non-scaling-stroke" d="
  M 574.29 331.04
  Q 559.91 319.22 542.27 310.19
  Q 535.09 306.52 528.06 304.91
  Q 527.55 304.79 527.55 305.32
  L 527.54 313.71"
/>
<path stroke="#e3f3df" vector-effect="non-scaling-stroke" d="
  M 574.29 331.04
  Q 574.64 332.02 573.79 332.35
  A 1.09 1.08 -30.2 0 1 572.58 332.04
  C 570.09 329.14 565.86 327.22 562.79 325.11
  C 555.93 320.39 547.99 317.30 539.74 314.76
  Q 533.38 312.80 527.54 313.71"
/>
<path stroke="#718f7e" vector-effect="non-scaling-stroke" d="
  M 451.96 342.49
  Q 450.57 342.68 447.83 345.82
  Q 440.80 353.88 433.73 362.79
  A 0.34 0.34 0.0 0 0 433.99 363.34
  L 489.80 363.24
  A 1.84 1.83 16.2 0 0 491.35 362.39
  C 495.66 355.49 501.81 351.04 509.55 349.37
  Q 510.22 349.22 510.22 348.53
  L 509.96 312.84"
/>
<path stroke="#8c9a9c" vector-effect="non-scaling-stroke" d="
  M 509.96 312.84
  L 509.81 305.70
  A 0.54 0.54 0.0 0 0 509.12 305.20
  Q 502.97 306.92 497.61 309.59
  Q 474.35 321.17 455.07 338.57
  Q 452.59 340.81 451.96 342.49"
/>
<path stroke="#e3f3df" vector-effect="non-scaling-stroke" d="
  M 509.96 312.84
  C 495.87 314.73 482.97 320.77 471.13 328.31
  Q 468.15 330.21 461.59 335.44
  Q 456.95 339.14 451.96 342.49"
/>
<path stroke="#648375" vector-effect="non-scaling-stroke" d="
  M 686.01 355.81
  Q 684.54 357.24 684.38 359.05"
/>
<path stroke="#8c694c" vector-effect="non-scaling-stroke" d="
  M 684.38 359.05
  Q 682.52 366.26 686.61 371.60
  C 693.51 380.62 705.82 377.17 710.20 367.94
  Q 712.79 362.46 709.50 356.59"
/>
<path stroke="#d7b787" vector-effect="non-scaling-stroke" d="
  M 684.38 359.05
  Q 685.61 358.68 685.23 359.19"
/>
<path stroke="#718f7e" vector-effect="non-scaling-stroke" d="
  M 325.57 362.19
  Q 324.94 363.25 325.87 366.62"
/>
<path stroke="#648375" vector-effect="non-scaling-stroke" d="
  M 325.87 366.62
  Q 327.35 372.76 332.76 375.22
  C 340.39 378.69 349.27 375.28 352.37 367.33"
/>
<path stroke="#718f7e" vector-effect="non-scaling-stroke" d="
  M 352.37 367.33
  Q 353.78 362.82 352.36 357.80"
/>
<path stroke="#8c9a9c" vector-effect="non-scaling-stroke" d="
  M 352.36 357.80
  Q 350.00 352.03 344.21 349.93"
/>
<path stroke="#648375" vector-effect="non-scaling-stroke" d="
  M 344.21 349.93
  Q 342.14 349.08 339.73 349.82"
/>
<path stroke="#8c9a9c" vector-effect="non-scaling-stroke" d="
  M 339.73 349.82
  Q 336.18 349.02 334.25 349.76
  Q 325.94 352.94 325.57 362.19"
/>
<path stroke="#d7e7d7" vector-effect="non-scaling-stroke" d="
  M 339.73 349.82
  Q 341.94 350.46 344.21 349.93"
/>
<path stroke="#e3f3df" vector-effect="non-scaling-stroke" d="
  M 352.36 357.80
  Q 352.51 358.56 351.97 358.97
  Q 351.51 359.32 351.21 358.83
  C 348.16 353.93 342.67 353.06 337.48 353.45
  Q 329.88 354.03 325.57 362.19"
/>
<path stroke="#bcdcb9" vector-effect="non-scaling-stroke" d="
  M 352.37 367.33
  Q 344.06 367.66 336.09 367.80
  Q 333.49 367.85 330.96 367.45
  Q 328.38 367.04 325.87 366.62"
/>
<path stroke="#718f7e" vector-effect="non-scaling-stroke" d="
  M 506.34 373.54
  A 14.06 13.71 -84.2 0 0 505.73 383.58
  A 14.05 13.72 -80.9 0 0 513.71 392.36
  A 14.07 13.71 -81.4 0 0 531.44 384.71
  A 14.04 13.69 -82.8 0 0 531.15 373.00"
/>
<path stroke="#8c9a9c" vector-effect="non-scaling-stroke" d="
  M 531.15 373.00
  A 14.08 13.74 -81.0 0 0 523.46 366.01
  A 14.07 13.71 -81.5 0 0 506.34 373.54"
/>
<path stroke="#e3f3df" vector-effect="non-scaling-stroke" d="
  M 531.15 373.00
  Q 522.93 370.52 520.25 370.25
  C 515.23 369.73 511.43 371.78 507.49 374.48
  A 0.67 0.66 -23.1 0 1 506.46 374.07
  L 506.34 373.54"
/>
<path stroke="#718f7e" vector-effect="non-scaling-stroke" d="
  M 391.32 412.02
  C 396.57 407.26 404.41 406.69 410.63 409.50
  Q 459.80 431.67 509.71 453.37
  A 0.40 0.40 0.0 0 0 510.27 453.00
  L 510.19 410.54
  Q 510.19 410.02 509.70 409.87
  C 495.90 405.66 488.70 394.53 487.53 380.90
  Q 487.47 380.25 486.83 380.25
  L 423.95 380.26
  Q 422.66 380.26 422.02 381.38
  Q 419.14 386.44 417.28 391.71
  C 415.80 395.90 413.06 401.42 408.02 401.96
  C 399.72 402.85 395.21 395.08 398.98 388.08
  Q 400.97 384.39 403.64 380.30
  A 0.21 0.21 0.0 0 0 403.46 379.97
  L 367.50 379.76
  A 2.60 2.60 0.0 0 0 365.28 380.98
  Q 358.64 391.49 346.00 393.67
  A 2.15 2.14 8.0 0 0 344.45 394.83
  C 337.11 409.69 331.41 424.82 328.06 440.99
  Q 325.92 451.31 324.19 461.81
  A 1.35 1.35 0.0 0 0 324.70 463.10
  C 329.78 466.92 332.59 472.99 334.93 478.83
  A 0.60 0.60 0.0 0 0 335.49 479.21
  L 385.23 479.26
  A 0.49 0.49 0.0 0 0 385.72 478.77
  Q 385.75 453.81 385.70 426.66
  C 385.69 420.78 386.76 416.16 391.32 412.02"
/>
<path stroke="#718f7e" vector-effect="non-scaling-stroke" d="
  M 639.90 391.99
  C 641.34 402.46 627.83 405.60 623.22 396.70
  Q 619.10 388.74 615.36 380.83
  Q 615.10 380.28 614.49 380.28
  L 550.54 380.28
  Q 549.89 380.28 549.83 380.92
  Q 547.72 403.34 527.74 410.20
  A 0.54 0.54 0.0 0 0 527.37 410.71
  L 527.27 452.98
  Q 527.27 453.47 527.75 453.37
  Q 530.31 452.83 532.31 451.92
  C 562.00 438.46 592.48 425.83 622.23 411.89
  Q 629.49 408.48 632.82 408.27
  C 640.41 407.80 647.57 411.43 650.18 418.71
  Q 651.34 421.95 651.32 426.88
  Q 651.21 453.58 651.31 478.23
  A 0.97 0.97 0.0 0 0 652.28 479.19
  L 700.96 479.00
  A 1.11 1.11 0.0 0 0 702.01 478.24
  Q 705.19 468.57 712.50 463.42
  A 1.71 1.70 -22.4 0 0 713.20 461.74
  C 710.94 448.58 708.05 434.25 703.85 422.25
  Q 698.80 407.84 691.91 394.70
  A 2.01 2.01 0.0 0 0 690.48 393.66
  Q 678.74 391.63 671.02 380.48
  A 1.51 1.51 0.0 0 0 669.78 379.83
  L 634.80 379.71
  Q 634.00 379.71 634.45 380.38
  C 636.81 383.85 639.33 387.86 639.90 391.99"
/>
<path stroke="#8c694c" vector-effect="non-scaling-stroke" d="
  M 403.71 437.72
  Q 403.13 437.72 403.13 438.37
  Q 402.96 492.57 402.98 547.45
  Q 402.98 548.88 404.29 549.43
  C 419.23 555.76 433.98 562.73 448.89 569.36
  Q 474.10 580.56 499.58 591.92
  Q 504.85 594.27 509.76 596.82
  Q 510.06 596.97 510.06 596.64
  L 509.96 479.89"
/>
<path stroke="#8c9a9c" vector-effect="non-scaling-stroke" d="
  M 509.96 479.89
  L 509.88 472.42
  Q 509.88 471.88 509.38 471.68
  Q 499.36 467.62 489.46 463.48
  Q 488.41 463.04 487.27 463.08
  Q 486.78 463.10 486.49 462.71
  Q 485.79 461.77 484.42 461.52"
/>
<path stroke="#718f7e" vector-effect="non-scaling-stroke" d="
  M 484.42 461.52
  L 477.79 458.68"
/>
<path stroke="#8c9a9c" vector-effect="non-scaling-stroke" d="
  M 477.79 458.68
  Q 475.22 456.69 471.90 456.18"
/>
<path stroke="#648375" vector-effect="non-scaling-stroke" d="
  M 471.90 456.18
  L 468.57 454.43"
/>
<path stroke="#8c9a9c" vector-effect="non-scaling-stroke" d="
  M 468.57 454.43
  Q 466.76 453.27 466.01 453.03
  Q 461.28 451.47 456.91 449.09
  Q 455.37 448.25 451.98 448.10"
/>
<path stroke="#648375" vector-effect="non-scaling-stroke" d="
  M 451.16 447.26
  Q 451.54 447.11 451.59 447.11
  Q 452.69 447.16 451.67 446.73
  Q 443.46 443.22 435.66 439.67
  Q 431.57 437.81 427.99 436.48
  Q 426.69 435.99 425.58 435.27
  Q 424.45 434.52 422.96 434.26
  Q 422.47 434.17 422.15 433.79
  Q 421.83 433.40 421.31 433.37
  Q 420.80 433.34 420.40 433.02
  Q 418.94 431.87 416.77 431.55"
/>
<path stroke="#648375" vector-effect="non-scaling-stroke" d="
  M 411.46 429.52
  Q 410.51 428.59 409.12 428.09
  C 407.24 427.41 405.70 426.63 404.04 425.57
  Q 402.99 424.89 403.35 426.09
  Q 403.38 426.20 403.72 426.43"
/>
<path stroke="#d7e7d7" vector-effect="non-scaling-stroke" d="
  M 421.07 434.19
  L 431.24 439.02"
/>
<path stroke="#d7e7d7" vector-effect="non-scaling-stroke" d="
  M 438.12 441.71
  L 440.14 443.01"
/>
<path stroke="#d7e7d7" vector-effect="non-scaling-stroke" d="
  M 468.57 454.43
  Q 469.31 457.06 471.90 456.18"
/>
<path stroke="#e3f3df" vector-effect="non-scaling-stroke" d="
  M 477.79 458.68
  Q 478.03 460.97 480.93 461.25"
/>
<path stroke="#d7e7d7" vector-effect="non-scaling-stroke" d="
  M 480.93 461.25
  Q 482.21 462.52 483.07 461.76"
/>
<path stroke="#e3f3df" vector-effect="non-scaling-stroke" d="
  M 483.07 461.76
  Q 483.63 461.48 484.42 461.52"
/>
<path stroke="#ffcead" vector-effect="non-scaling-stroke" d="
  M 509.96 479.89
  Q 505.98 477.78 502.20 476.11
  Q 471.89 462.73 441.69 449.08
  Q 433.14 445.21 423.91 441.24
  Q 421.04 440.00 418.05 438.35
  Q 415.21 436.78 411.50 435.50
  Q 409.97 434.97 408.29 435.60
  Q 406.74 436.18 405.10 437.22"
/>
<path stroke="#bcdcb9" vector-effect="non-scaling-stroke" d="
  M 483.07 461.76
  Q 483.31 460.80 480.93 461.25"
/>
<path stroke="#8c9a9c" vector-effect="non-scaling-stroke" d="
  M 630.03 429.16
  Q 629.35 429.17 628.66 429.16
  Q 627.98 429.16 627.36 429.40
  Q 611.60 435.49 596.49 442.70"
/>
<path stroke="#648375" vector-effect="non-scaling-stroke" d="
  M 596.49 442.70
  Q 591.40 444.12 586.33 447.19"
/>
<path stroke="#8c9a9c" vector-effect="non-scaling-stroke" d="
  M 586.33 447.19
  Q 583.45 448.01 580.04 449.53
  Q 554.12 461.12 528.01 472.38
  Q 527.54 472.58 527.52 473.09
  L 527.30 480.00"
/>
<path stroke="#8c694c" vector-effect="non-scaling-stroke" d="
  M 527.30 480.00
  L 527.55 597.40
  Q 527.55 597.98 528.07 597.72
  C 554.48 584.63 581.69 573.16 608.72 561.32
  Q 620.14 556.32 630.96 551.15
  Q 632.37 550.47 633.69 549.66
  A 1.36 1.35 -16.4 0 0 634.32 548.52
  L 634.42 438.29"
/>
<path stroke="#8c9a9c" vector-effect="non-scaling-stroke" d="
  M 634.42 438.29
  L 633.99 428.96"
/>
<path stroke="#648375" vector-effect="non-scaling-stroke" d="
  M 633.44 427.02
  Q 631.11 426.77 629.81 428.35
  Q 629.40 428.84 630.04 428.83
  L 630.48 428.82"
/>
<path stroke="#ffcead" vector-effect="non-scaling-stroke" d="
  M 634.42 438.29
  Q 634.17 438.34 633.95 438.36
  Q 633.48 438.41 633.20 438.02
  C 631.35 435.48 627.18 435.94 624.71 437.05
  Q 611.86 442.87 598.49 448.65
  C 593.82 450.67 589.41 452.99 584.73 454.94
  Q 579.23 457.24 574.27 459.52
  Q 551.18 470.12 527.30 480.00"
/>
<path stroke="#d7e7d7" vector-effect="non-scaling-stroke" d="
  M 586.33 447.19
  Q 588.45 447.39 592.17 445.90
  Q 595.45 444.57 596.49 442.70"
/>
<path stroke="#718f7e" vector-effect="non-scaling-stroke" d="
  M 291.19 482.72
  A 13.60 13.55 -45.9 0 0 291.30 490.44"
/>
<path stroke="#648375" vector-effect="non-scaling-stroke" d="
  M 291.30 490.44
  A 13.60 13.60 0.0 0 0 300.13 499.35
  A 13.62 13.58 -51.1 0 0 311.13 498.15
  A 13.56 13.55 85.1 0 0 317.04 491.12"
/>
<path stroke="#718f7e" vector-effect="non-scaling-stroke" d="
  M 317.04 491.12
  A 13.57 13.49 -37.4 0 0 317.84 485.29"
/>
<path stroke="#8c9a9c" vector-effect="non-scaling-stroke" d="
  M 317.84 485.29
  A 13.61 13.59 -72.0 0 0 313.17 476.09
  A 13.63 13.61 56.7 0 0 300.23 473.41
  A 13.59 13.59 0.0 0 0 291.19 482.72"
/>
<path stroke="#e3f3df" vector-effect="non-scaling-stroke" d="
  M 317.84 485.29
  Q 315.02 481.46 313.86 480.66
  Q 308.46 476.93 300.46 477.78
  Q 295.02 478.35 292.73 482.98
  A 0.77 0.75 13.3 0 1 292.03 483.40
  Q 291.51 483.39 291.19 482.72"
/>
<path stroke="#bcdcb9" vector-effect="non-scaling-stroke" d="
  M 317.04 491.12
  Q 309.32 491.39 301.76 491.38
  Q 299.98 491.38 296.55 490.81
  Q 294.01 490.38 291.30 490.44"
/>
<path stroke="#8c9a9c" vector-effect="non-scaling-stroke" d="
  M 725.57 474.94
  Q 722.56 476.14 720.85 479.33"
/>
<path stroke="#718f7e" vector-effect="non-scaling-stroke" d="
  M 720.85 479.33
  Q 718.93 481.93 718.75 486.25
  Q 718.64 488.95 719.69 490.65"
/>
<path stroke="#648375" vector-effect="non-scaling-stroke" d="
  M 719.69 490.65
  Q 721.11 494.73 724.14 497.18
  Q 727.01 499.50 731.18 499.74
  Q 739.72 500.24 744.72 492.27"
/>
<path stroke="#718f7e" vector-effect="non-scaling-stroke" d="
  M 744.72 492.27
  Q 747.02 486.99 744.88 481.67"
/>
<path stroke="#8c9a9c" vector-effect="non-scaling-stroke" d="
  M 744.88 481.67
  Q 742.92 475.96 737.78 475.63"
/>
<path stroke="#648375" vector-effect="non-scaling-stroke" d="
  M 737.78 475.63
  Q 737.44 475.19 737.93 474.92
  Q 738.31 474.70 737.93 474.49
  Q 736.61 473.74 734.93 473.57"
/>
<path stroke="#648375" vector-effect="non-scaling-stroke" d="
  M 731.94 473.28
  Q 728.42 472.28 725.57 474.94"
/>
<path stroke="#d7e7d7" vector-effect="non-scaling-stroke" d="
  M 726.84 475.22
  Q 727.29 476.07 725.57 474.94"
/>
<path stroke="#e3f3df" vector-effect="non-scaling-stroke" d="
  M 744.88 481.67
  Q 743.39 481.22 742.00 480.62
  Q 739.51 479.53 737.03 478.46
  Q 734.60 477.41 732.04 477.29
  Q 730.47 477.22 727.08 478.13
  Q 724.04 478.94 720.85 479.33"
/>
<path stroke="#d7e7d7" vector-effect="non-scaling-stroke" d="
  M 737.78 475.63
  L 736.27 474.72"
/>
<path stroke="#bcdcb9" vector-effect="non-scaling-stroke" d="
  M 744.72 492.27
  Q 737.04 491.89 729.80 491.68
  Q 728.08 491.63 724.78 491.04
  Q 722.29 490.60 719.69 490.65"
/>
<path stroke="#718f7e" vector-effect="non-scaling-stroke" d="
  M 400.27 572.67
  C 402.55 570.50 406.57 569.95 409.33 571.39
  Q 411.20 572.37 413.26 575.98
  Q 419.15 586.26 426.13 596.74
  Q 427.07 598.15 428.64 598.14
  Q 450.24 598.01 468.88 598.05
  Q 470.56 598.05 469.02 597.39
  C 450.17 589.24 431.72 581.20 412.95 571.88
  C 406.59 568.72 399.40 567.31 393.18 562.90
  C 387.91 559.16 385.67 553.96 385.69 547.33
  Q 385.79 518.77 385.62 497.12
  A 0.63 0.63 0.0 0 0 384.99 496.49
  L 334.55 496.51
  Q 333.99 496.51 333.81 497.03
  Q 331.09 504.92 324.42 510.58
  Q 323.74 511.17 323.89 512.06
  Q 329.62 545.90 344.94 579.76
  Q 345.44 580.86 346.61 581.25
  C 355.45 584.20 362.31 588.85 366.61 597.42
  A 0.96 0.94 -13.1 0 0 367.46 597.94
  L 405.23 597.63
  A 0.51 0.51 0.0 0 0 405.63 596.82
  Q 401.13 590.74 398.24 584.79
  Q 394.86 577.83 400.27 572.67"
/>
<path stroke="#718f7e" vector-effect="non-scaling-stroke" d="
  M 598.39 584.68
  C 588.82 588.86 578.29 593.02 568.32 597.12
  Q 567.86 597.31 567.58 597.68
  A 0.24 0.24 0.0 0 0 567.77 598.06
  L 610.21 597.85
  A 2.41 2.41 0.0 0 0 612.28 596.67
  Q 618.78 585.76 625.59 575.29
  Q 629.69 568.98 635.72 571.98
  C 639.67 573.94 641.85 578.48 640.47 582.81
  C 638.84 587.95 634.98 592.85 631.91 597.31
  A 0.42 0.41 -72.8 0 0 632.25 597.96
  L 669.09 597.91
  Q 669.75 597.91 670.03 597.32
  Q 676.12 584.63 690.94 581.42
  A 1.37 1.34 4.9 0 0 691.91 580.62
  Q 697.05 568.17 701.24 557.29
  Q 709.50 535.85 713.32 511.54
  A 1.12 1.11 23.5 0 0 712.89 510.47
  Q 705.95 505.13 703.09 497.26
  A 1.21 1.20 79.9 0 0 701.96 496.47
  L 652.00 496.57
  A 0.64 0.64 0.0 0 0 651.36 497.20
  Q 651.17 520.40 651.33 544.63
  C 651.40 554.53 649.89 561.59 640.59 565.83
  Q 620.36 575.08 598.39 584.68"
/>
<path stroke="#8c9a9c" vector-effect="non-scaling-stroke" d="
  M 336.71 599.18
  Q 330.50 598.54 326.51 606.04"
/>
<path stroke="#718f7e" vector-effect="non-scaling-stroke" d="
  M 326.51 606.04
  Q 325.04 608.47 325.17 612.79"
/>
<path stroke="#648375" vector-effect="non-scaling-stroke" d="
  M 325.17 612.79
  Q 325.92 619.74 330.60 623.28
  C 338.11 628.97 347.97 626.09 352.06 617.48"
/>
<path stroke="#718f7e" vector-effect="non-scaling-stroke" d="
  M 352.06 617.48
  Q 353.81 612.47 352.38 608.06"
/>
<path stroke="#8c9a9c" vector-effect="non-scaling-stroke" d="
  M 352.38 608.06
  Q 351.15 604.45 348.49 602.17"
/>
<path stroke="#648375" vector-effect="non-scaling-stroke" d="
  M 348.49 602.17
  L 346.56 600.53"
/>
<path stroke="#8c9a9c" vector-effect="non-scaling-stroke" d="
  M 346.56 600.53
  Q 346.06 599.96 345.23 599.61"
/>
<path stroke="#648375" vector-effect="non-scaling-stroke" d="
  M 345.23 599.61
  Q 342.12 598.10 342.72 600.06"
/>
<path stroke="#8c9a9c" vector-effect="non-scaling-stroke" d="
  M 342.72 600.06
  L 340.79 599.75"
/>
<path stroke="#d7e7d7" vector-effect="non-scaling-stroke" d="
  M 342.72 600.06
  Q 343.47 600.32 345.23 599.61"
/>
<path stroke="#d7e7d7" vector-effect="non-scaling-stroke" d="
  M 346.56 600.53
  L 346.08 601.67
  Q 345.89 602.13 346.24 602.48
  Q 347.13 603.36 348.49 602.17"
/>
<path stroke="#e3f3df" vector-effect="non-scaling-stroke" d="
  M 352.38 608.06
  Q 352.33 608.58 352.18 608.84
  Q 351.88 609.35 351.50 608.90
  Q 345.83 602.13 337.37 603.10
  Q 336.07 603.25 332.00 604.70
  Q 329.42 605.62 326.51 606.04"
/>
<path stroke="#bcdcb9" vector-effect="non-scaling-stroke" d="
  M 352.06 617.48
  Q 349.75 616.46 347.11 616.86
  Q 344.13 617.31 342.82 617.21
  Q 338.54 616.86 334.25 616.63
  Q 329.51 616.38 325.17 612.79"
/>
<path stroke="#8c694c" vector-effect="non-scaling-stroke" d="
  M 685.59 607.61
  Q 684.37 607.66 684.13 609.74
  C 682.86 620.79 693.11 630.15 703.84 624.78
  Q 710.09 621.66 711.08 613.98"
/>
<path stroke="#8c9a9c" vector-effect="non-scaling-stroke" d="
  M 711.08 613.98
  Q 711.96 607.94 708.43 604.79"
/>
<path stroke="#ffcead" vector-effect="non-scaling-stroke" d="
  M 703.19 603.16
  Q 705.01 605.64 707.82 607.06
  Q 708.27 607.29 708.46 607.76
  L 711.08 613.98"
/>
<path stroke="#648375" vector-effect="non-scaling-stroke" d="
  M 537.25 614.57
  C 533.29 614.51 527.33 614.73 527.36 619.87
  Q 527.49 639.29 527.33 658.52
  A 1.08 1.07 -77.4 0 0 527.94 659.49
  L 532.63 661.68
  Q 533.19 661.95 533.79 661.78
  Q 535.37 661.36 536.83 660.63
  Q 546.68 655.69 556.28 650.28
  Q 574.41 640.07 588.64 625.74
  Q 593.81 620.54 599.24 614.92
  Q 599.76 614.38 599.01 614.40
  Q 570.82 615.04 537.25 614.57"
/>
<path stroke="#648375" vector-effect="non-scaling-stroke" d="
  M 489.12 674.13
  Q 460.14 660.02 437.39 638.24
  C 430.36 631.50 424.00 623.87 418.26 616.12
  Q 417.13 614.59 415.20 614.61
  Q 394.33 614.76 372.96 614.69
  Q 372.31 614.69 372.19 615.34
  L 371.45 619.29
  Q 371.26 620.29 371.97 621.02
  Q 382.60 631.83 392.11 639.84
  Q 429.93 671.71 478.47 682.71
  Q 482.97 683.73 487.32 684.25
  Q 487.85 684.31 488.06 683.83
  L 491.38 676.32
  Q 491.56 675.90 491.23 675.58
  Q 490.31 674.71 489.12 674.13"
/>
<path stroke="#648375" vector-effect="non-scaling-stroke" d="
  M 504.11 661.59
  L 509.27 659.29
  Q 509.93 659.00 509.94 658.28
  Q 510.17 639.36 509.93 621.82
  Q 509.91 620.15 509.62 618.44
  C 509.05 615.07 504.33 614.73 501.72 614.74
  Q 469.84 614.84 439.57 614.61
  A 0.49 0.49 0.0 0 0 439.19 615.42
  Q 443.30 620.35 449.06 625.91
  Q 472.36 648.36 503.08 661.60
  Q 503.60 661.82 504.11 661.59"
/>
<path stroke="#648375" vector-effect="non-scaling-stroke" d="
  M 546.64 676.52
  L 549.89 684.31
  A 0.69 0.69 0.0 0 0 550.64 684.72
  Q 588.60 678.25 620.09 658.42
  Q 643.39 643.75 664.83 622.14
  C 666.56 620.40 665.74 617.47 664.98 615.54
  A 1.30 1.30 0.0 0 0 663.76 614.72
  Q 642.55 614.84 622.27 614.76
  C 620.88 614.76 620.05 615.61 619.31 616.65
  Q 605.61 635.77 588.92 649.00
  Q 569.76 664.18 547.68 673.91
  Q 545.88 674.70 546.64 676.52"
/>
<path stroke="#8c9a9c" vector-effect="non-scaling-stroke" d="
  M 515.55 676.44
  A 14.13 13.50 79.5 0 0 505.52 686.98"
/>
<path stroke="#718f7e" vector-effect="non-scaling-stroke" d="
  M 505.52 686.98
  A 14.05 13.32 71.3 0 0 505.37 692.08"
/>
<path stroke="#648375" vector-effect="non-scaling-stroke" d="
  M 505.37 692.08
  A 14.07 13.47 78.9 0 0 511.07 701.67
  A 14.14 13.49 78.4 0 0 518.48 704.28
  A 14.12 13.51 78.9 0 0 531.64 694.61"
/>
<path stroke="#718f7e" vector-effect="non-scaling-stroke" d="
  M 531.64 694.61
  A 14.18 13.57 81.2 0 0 531.56 685.96"
/>
<path stroke="#8c9a9c" vector-effect="non-scaling-stroke" d="
  M 531.56 685.96
  A 14.14 13.49 79.9 0 0 524.03 677.32"
/>
<path stroke="#648375" vector-effect="non-scaling-stroke" d="
  M 524.03 677.32
  A 14.13 13.53 80.6 0 0 515.55 676.44"
/>
<path stroke="#d7e7d7" vector-effect="non-scaling-stroke" d="
  M 524.03 677.32
  Q 522.47 677.99 521.21 677.94"
/>
<path stroke="#d7e7d7" vector-effect="non-scaling-stroke" d="
  M 517.31 677.41
  Q 516.82 676.15 515.55 676.44"
/>
<path stroke="#e3f3df" vector-effect="non-scaling-stroke" d="
  M 531.56 685.96
  Q 524.90 680.01 516.49 680.94
  Q 510.36 681.62 505.52 686.98"
/>
<path stroke="#bcdcb9" vector-effect="non-scaling-stroke" d="
  M 531.64 694.61
  Q 516.64 698.91 505.37 692.08"
/>
</g>
<path fill="#19353a" d="
  M 710.61 392.73
  C 718.68 412.07 726.28 432.89 728.97 453.62
  A 1.63 1.62 86.9 0 0 730.54 455.04
  Q 751.09 455.50 759.64 472.75
  Q 764.32 482.20 762.46 493.02
  C 761.85 496.54 759.75 499.36 758.12 502.50
  Q 757.17 504.33 755.84 505.89
  Q 746.13 517.21 730.86 516.91
  A 1.92 1.91 -84.6 0 0 728.94 518.50
  Q 724.93 541.78 716.46 564.23
  Q 713.26 572.71 709.59 581.28
  A 1.68 1.67 -66.1 0 0 710.43 583.46
  Q 727.30 591.31 729.08 611.37
  Q 729.58 617.00 727.37 623.11
  C 722.83 635.65 710.82 643.32 697.63 643.52
  C 689.92 643.64 683.16 640.56 677.51 635.71
  A 1.90 1.90 0.0 0 0 674.74 636.02
  Q 672.80 638.65 670.54 640.79
  Q 664.09 646.90 657.13 652.92
  C 644.83 663.56 631.01 672.12 616.80 680.07
  C 600.68 689.09 582.88 694.98 565.13 699.28
  Q 558.24 700.94 550.75 701.89
  C 549.12 702.09 547.46 702.74 546.58 704.22
  C 542.14 711.62 537.37 716.57 528.74 719.81
  Q 518.78 723.55 509.69 720.16
  Q 497.20 715.50 491.00 703.97
  Q 490.30 702.66 488.89 702.39
  Q 480.68 700.81 471.87 698.86
  Q 463.84 697.08 454.55 694.02
  C 419.20 682.38 387.83 661.65 361.68 635.60
  A 1.72 1.72 0.0 0 0 359.28 635.56
  Q 349.99 644.35 336.66 643.40
  Q 322.67 642.40 313.62 630.27
  Q 306.96 621.34 307.81 610.69
  Q 309.33 591.38 327.41 582.99
  A 0.89 0.88 65.9 0 0 327.85 581.82
  C 325.28 575.96 322.31 570.51 320.16 564.56
  Q 313.95 547.39 309.40 527.46
  Q 308.27 522.53 307.70 518.35
  A 1.26 1.26 0.0 0 0 306.44 517.27
  Q 287.94 517.35 277.84 502.77
  C 272.87 495.61 271.76 486.31 274.34 477.85
  C 278.68 463.59 292.06 454.17 306.95 455.28
  A 1.06 1.06 0.0 0 0 308.07 454.41
  Q 309.69 445.27 311.52 437.10
  C 314.84 422.35 319.72 406.97 326.86 393.31
  A 1.61 1.61 0.0 0 0 326.19 391.14
  C 316.64 386.10 309.24 377.66 308.05 366.86
  Q 306.97 357.02 310.86 349.16
  C 316.31 338.13 327.06 331.65 339.41 331.48
  C 348.16 331.36 353.04 334.59 359.59 339.24
  A 1.57 1.57 0.0 0 0 361.75 338.90
  Q 367.45 331.34 374.62 325.02
  Q 401.65 301.20 432.43 286.61
  Q 457.56 274.71 487.40 268.81
  A 1.80 1.79 2.7 0 0 488.78 267.56
  Q 495.74 244.44 519.51 244.49
  C 533.23 244.52 544.98 254.34 549.13 267.35
  A 1.59 1.58 -2.8 0 0 550.32 268.42
  Q 571.74 272.82 592.13 280.82
  C 618.00 290.98 642.02 306.65 662.66 325.12
  Q 669.79 331.51 675.63 338.49
  Q 676.63 339.68 677.83 338.70
  Q 688.97 329.57 701.96 331.66
  C 718.93 334.37 731.40 351.11 728.33 368.22
  C 726.94 375.97 721.94 381.71 716.81 387.54
  Q 714.53 390.13 711.27 391.25
  A 1.11 1.11 0.0 0 0 710.61 392.73
  Z
  M 505.45 271.73
  A 13.68 13.64 -53.9 0 0 507.08 282.23
  A 13.68 13.67 79.9 0 0 516.00 288.46
  A 13.67 13.67 0.0 0 0 530.99 281.09
  A 13.74 13.67 -34.6 0 0 532.34 273.80
  A 13.69 13.68 -75.2 0 0 526.57 263.87
  A 13.66 13.65 53.1 0 0 514.30 262.12
  A 13.68 13.67 -2.4 0 0 505.45 271.73
  Z
  M 480.01 288.67
  Q 478.19 288.37 476.94 289.20
  Q 475.71 289.14 474.28 289.76
  Q 455.05 295.26 443.11 300.62
  Q 422.88 309.70 401.39 325.63
  Q 385.40 337.49 372.37 352.78
  C 371.14 354.06 370.34 355.67 371.00 357.47
  Q 372.01 360.24 372.57 362.90
  Q 372.64 363.26 373.00 363.26
  L 412.97 363.23
  Q 413.56 363.23 413.84 362.72
  C 430.92 331.69 460.07 308.53 491.75 292.77
  Q 492.48 292.41 492.01 291.75
  Q 491.26 290.69 490.39 289.41
  Q 490.19 289.12 490.03 289.43
  Q 489.94 289.60 489.90 290.02
  Q 489.69 288.86 489.40 287.74
  Q 488.82 285.48 486.46 286.34
  Q 483.20 287.53 480.01 288.67
  Z
  M 547.05 290.45
  Q 545.81 290.90 546.06 292.01
  Q 546.17 292.49 546.61 292.73
  Q 551.50 295.48 556.86 298.42
  C 571.15 306.26 583.88 316.07 596.99 328.22
  Q 613.03 343.09 623.95 362.12
  A 1.74 1.73 -15.0 0 0 625.45 362.98
  L 663.22 363.04
  A 1.61 1.60 -81.8 0 0 664.76 361.88
  C 665.49 359.33 667.59 355.31 665.59 352.93
  Q 662.86 349.67 656.76 343.78
  Q 628.90 315.72 592.47 299.93
  L 578.04 293.82
  L 576.73 293.49
  Q 569.90 290.93 562.70 289.91
  L 550.83 286.31
  A 2.05 2.05 0.0 0 0 548.26 287.76
  Q 547.87 289.23 547.05 290.45
  Z
  M 527.54 313.71
  L 527.50 347.65
  A 1.65 1.64 9.1 0 0 528.65 349.23
  Q 540.12 352.88 546.54 362.75
  Q 546.84 363.20 547.38 363.21
  Q 575.38 363.35 602.83 363.19
  Q 603.45 363.18 604.06 363.01
  Q 604.67 362.83 604.29 362.31
  Q 591.26 344.76 574.29 331.04
  Q 559.91 319.22 542.27 310.19
  Q 535.09 306.52 528.06 304.91
  Q 527.55 304.79 527.55 305.32
  L 527.54 313.71
  Z
  M 451.96 342.49
  Q 450.57 342.68 447.83 345.82
  Q 440.80 353.88 433.73 362.79
  A 0.34 0.34 0.0 0 0 433.99 363.34
  L 489.80 363.24
  A 1.84 1.83 16.2 0 0 491.35 362.39
  C 495.66 355.49 501.81 351.04 509.55 349.37
  Q 510.22 349.22 510.22 348.53
  L 509.96 312.84
  L 509.81 305.70
  A 0.54 0.54 0.0 0 0 509.12 305.20
  Q 502.97 306.92 497.61 309.59
  Q 474.35 321.17 455.07 338.57
  Q 452.59 340.81 451.96 342.49
  Z
  M 686.01 355.81
  Q 684.54 357.24 684.38 359.05
  Q 682.52 366.26 686.61 371.60
  C 693.51 380.62 705.82 377.17 710.20 367.94
  Q 712.79 362.46 709.50 356.59
  Q 707.20 351.63 702.49 350.24
  Q 691.19 346.89 686.01 355.81
  Z
  M 325.57 362.19
  Q 324.94 363.25 325.87 366.62
  Q 327.35 372.76 332.76 375.22
  C 340.39 378.69 349.27 375.28 352.37 367.33
  Q 353.78 362.82 352.36 357.80
  Q 350.00 352.03 344.21 349.93
  Q 342.14 349.08 339.73 349.82
  Q 336.18 349.02 334.25 349.76
  Q 325.94 352.94 325.57 362.19
  Z
  M 506.34 373.54
  A 14.06 13.71 -84.2 0 0 505.73 383.58
  A 14.05 13.72 -80.9 0 0 513.71 392.36
  A 14.07 13.71 -81.4 0 0 531.44 384.71
  A 14.04 13.69 -82.8 0 0 531.15 373.00
  A 14.08 13.74 -81.0 0 0 523.46 366.01
  A 14.07 13.71 -81.5 0 0 506.34 373.54
  Z
  M 391.32 412.02
  C 396.57 407.26 404.41 406.69 410.63 409.50
  Q 459.80 431.67 509.71 453.37
  A 0.40 0.40 0.0 0 0 510.27 453.00
  L 510.19 410.54
  Q 510.19 410.02 509.70 409.87
  C 495.90 405.66 488.70 394.53 487.53 380.90
  Q 487.47 380.25 486.83 380.25
  L 423.95 380.26
  Q 422.66 380.26 422.02 381.38
  Q 419.14 386.44 417.28 391.71
  C 415.80 395.90 413.06 401.42 408.02 401.96
  C 399.72 402.85 395.21 395.08 398.98 388.08
  Q 400.97 384.39 403.64 380.30
  A 0.21 0.21 0.0 0 0 403.46 379.97
  L 367.50 379.76
  A 2.60 2.60 0.0 0 0 365.28 380.98
  Q 358.64 391.49 346.00 393.67
  A 2.15 2.14 8.0 0 0 344.45 394.83
  C 337.11 409.69 331.41 424.82 328.06 440.99
  Q 325.92 451.31 324.19 461.81
  A 1.35 1.35 0.0 0 0 324.70 463.10
  C 329.78 466.92 332.59 472.99 334.93 478.83
  A 0.60 0.60 0.0 0 0 335.49 479.21
  L 385.23 479.26
  A 0.49 0.49 0.0 0 0 385.72 478.77
  Q 385.75 453.81 385.70 426.66
  C 385.69 420.78 386.76 416.16 391.32 412.02
  Z
  M 639.90 391.99
  C 641.34 402.46 627.83 405.60 623.22 396.70
  Q 619.10 388.74 615.36 380.83
  Q 615.10 380.28 614.49 380.28
  L 550.54 380.28
  Q 549.89 380.28 549.83 380.92
  Q 547.72 403.34 527.74 410.20
  A 0.54 0.54 0.0 0 0 527.37 410.71
  L 527.27 452.98
  Q 527.27 453.47 527.75 453.37
  Q 530.31 452.83 532.31 451.92
  C 562.00 438.46 592.48 425.83 622.23 411.89
  Q 629.49 408.48 632.82 408.27
  C 640.41 407.80 647.57 411.43 650.18 418.71
  Q 651.34 421.95 651.32 426.88
  Q 651.21 453.58 651.31 478.23
  A 0.97 0.97 0.0 0 0 652.28 479.19
  L 700.96 479.00
  A 1.11 1.11 0.0 0 0 702.01 478.24
  Q 705.19 468.57 712.50 463.42
  A 1.71 1.70 -22.4 0 0 713.20 461.74
  C 710.94 448.58 708.05 434.25 703.85 422.25
  Q 698.80 407.84 691.91 394.70
  A 2.01 2.01 0.0 0 0 690.48 393.66
  Q 678.74 391.63 671.02 380.48
  A 1.51 1.51 0.0 0 0 669.78 379.83
  L 634.80 379.71
  Q 634.00 379.71 634.45 380.38
  C 636.81 383.85 639.33 387.86 639.90 391.99
  Z
  M 403.72 426.43
  Q 402.95 432.09 403.71 437.72
  Q 403.13 437.72 403.13 438.37
  Q 402.96 492.57 402.98 547.45
  Q 402.98 548.88 404.29 549.43
  C 419.23 555.76 433.98 562.73 448.89 569.36
  Q 474.10 580.56 499.58 591.92
  Q 504.85 594.27 509.76 596.82
  Q 510.06 596.97 510.06 596.64
  L 509.96 479.89
  L 509.88 472.42
  Q 509.88 471.88 509.38 471.68
  Q 499.36 467.62 489.46 463.48
  Q 488.41 463.04 487.27 463.08
  Q 486.78 463.10 486.49 462.71
  Q 485.79 461.77 484.42 461.52
  L 477.79 458.68
  Q 475.22 456.69 471.90 456.18
  L 468.57 454.43
  Q 466.76 453.27 466.01 453.03
  Q 461.28 451.47 456.91 449.09
  Q 455.37 448.25 451.98 448.10
  Q 451.73 447.63 451.16 447.26
  Q 451.54 447.11 451.59 447.11
  Q 452.69 447.16 451.67 446.73
  Q 443.46 443.22 435.66 439.67
  Q 431.57 437.81 427.99 436.48
  Q 426.69 435.99 425.58 435.27
  Q 424.45 434.52 422.96 434.26
  Q 422.47 434.17 422.15 433.79
  Q 421.83 433.40 421.31 433.37
  Q 420.80 433.34 420.40 433.02
  Q 418.94 431.87 416.77 431.55
  L 411.46 429.52
  Q 410.51 428.59 409.12 428.09
  C 407.24 427.41 405.70 426.63 404.04 425.57
  Q 402.99 424.89 403.35 426.09
  Q 403.38 426.20 403.72 426.43
  Z
  M 630.48 428.82
  L 630.03 429.16
  Q 629.35 429.17 628.66 429.16
  Q 627.98 429.16 627.36 429.40
  Q 611.60 435.49 596.49 442.70
  Q 591.40 444.12 586.33 447.19
  Q 583.45 448.01 580.04 449.53
  Q 554.12 461.12 528.01 472.38
  Q 527.54 472.58 527.52 473.09
  L 527.30 480.00
  L 527.55 597.40
  Q 527.55 597.98 528.07 597.72
  C 554.48 584.63 581.69 573.16 608.72 561.32
  Q 620.14 556.32 630.96 551.15
  Q 632.37 550.47 633.69 549.66
  A 1.36 1.35 -16.4 0 0 634.32 548.52
  L 634.42 438.29
  L 633.99 428.96
  Q 634.02 428.21 633.44 427.02
  Q 631.11 426.77 629.81 428.35
  Q 629.40 428.84 630.04 428.83
  L 630.48 428.82
  Z
  M 291.19 482.72
  A 13.60 13.55 -45.9 0 0 291.30 490.44
  A 13.60 13.60 0.0 0 0 300.13 499.35
  A 13.62 13.58 -51.1 0 0 311.13 498.15
  A 13.56 13.55 85.1 0 0 317.04 491.12
  A 13.57 13.49 -37.4 0 0 317.84 485.29
  A 13.61 13.59 -72.0 0 0 313.17 476.09
  A 13.63 13.61 56.7 0 0 300.23 473.41
  A 13.59 13.59 0.0 0 0 291.19 482.72
  Z
  M 725.57 474.94
  Q 722.56 476.14 720.85 479.33
  Q 718.93 481.93 718.75 486.25
  Q 718.64 488.95 719.69 490.65
  Q 721.11 494.73 724.14 497.18
  Q 727.01 499.50 731.18 499.74
  Q 739.72 500.24 744.72 492.27
  Q 747.02 486.99 744.88 481.67
  Q 742.92 475.96 737.78 475.63
  Q 737.44 475.19 737.93 474.92
  Q 738.31 474.70 737.93 474.49
  Q 736.61 473.74 734.93 473.57
  L 731.94 473.28
  Q 728.42 472.28 725.57 474.94
  Z
  M 400.27 572.67
  C 402.55 570.50 406.57 569.95 409.33 571.39
  Q 411.20 572.37 413.26 575.98
  Q 419.15 586.26 426.13 596.74
  Q 427.07 598.15 428.64 598.14
  Q 450.24 598.01 468.88 598.05
  Q 470.56 598.05 469.02 597.39
  C 450.17 589.24 431.72 581.20 412.95 571.88
  C 406.59 568.72 399.40 567.31 393.18 562.90
  C 387.91 559.16 385.67 553.96 385.69 547.33
  Q 385.79 518.77 385.62 497.12
  A 0.63 0.63 0.0 0 0 384.99 496.49
  L 334.55 496.51
  Q 333.99 496.51 333.81 497.03
  Q 331.09 504.92 324.42 510.58
  Q 323.74 511.17 323.89 512.06
  Q 329.62 545.90 344.94 579.76
  Q 345.44 580.86 346.61 581.25
  C 355.45 584.20 362.31 588.85 366.61 597.42
  A 0.96 0.94 -13.1 0 0 367.46 597.94
  L 405.23 597.63
  A 0.51 0.51 0.0 0 0 405.63 596.82
  Q 401.13 590.74 398.24 584.79
  Q 394.86 577.83 400.27 572.67
  Z
  M 598.39 584.68
  C 588.82 588.86 578.29 593.02 568.32 597.12
  Q 567.86 597.31 567.58 597.68
  A 0.24 0.24 0.0 0 0 567.77 598.06
  L 610.21 597.85
  A 2.41 2.41 0.0 0 0 612.28 596.67
  Q 618.78 585.76 625.59 575.29
  Q 629.69 568.98 635.72 571.98
  C 639.67 573.94 641.85 578.48 640.47 582.81
  C 638.84 587.95 634.98 592.85 631.91 597.31
  A 0.42 0.41 -72.8 0 0 632.25 597.96
  L 669.09 597.91
  Q 669.75 597.91 670.03 597.32
  Q 676.12 584.63 690.94 581.42
  A 1.37 1.34 4.9 0 0 691.91 580.62
  Q 697.05 568.17 701.24 557.29
  Q 709.50 535.85 713.32 511.54
  A 1.12 1.11 23.5 0 0 712.89 510.47
  Q 705.95 505.13 703.09 497.26
  A 1.21 1.20 79.9 0 0 701.96 496.47
  L 652.00 496.57
  A 0.64 0.64 0.0 0 0 651.36 497.20
  Q 651.17 520.40 651.33 544.63
  C 651.40 554.53 649.89 561.59 640.59 565.83
  Q 620.36 575.08 598.39 584.68
  Z
  M 336.71 599.18
  Q 330.50 598.54 326.51 606.04
  Q 325.04 608.47 325.17 612.79
  Q 325.92 619.74 330.60 623.28
  C 338.11 628.97 347.97 626.09 352.06 617.48
  Q 353.81 612.47 352.38 608.06
  Q 351.15 604.45 348.49 602.17
  L 346.56 600.53
  Q 346.06 599.96 345.23 599.61
  Q 342.12 598.10 342.72 600.06
  L 340.79 599.75
  Q 341.17 599.60 341.64 599.59
  Q 342.13 599.59 341.72 599.31
  Q 339.82 598.04 336.71 599.18
  Z
  M 685.59 607.61
  Q 684.37 607.66 684.13 609.74
  C 682.86 620.79 693.11 630.15 703.84 624.78
  Q 710.09 621.66 711.08 613.98
  Q 711.96 607.94 708.43 604.79
  Q 705.30 600.44 700.41 599.13
  C 695.52 597.81 690.90 599.33 687.73 603.22
  Q 686.22 605.09 685.59 607.61
  Z
  M 537.25 614.57
  C 533.29 614.51 527.33 614.73 527.36 619.87
  Q 527.49 639.29 527.33 658.52
  A 1.08 1.07 -77.4 0 0 527.94 659.49
  L 532.63 661.68
  Q 533.19 661.95 533.79 661.78
  Q 535.37 661.36 536.83 660.63
  Q 546.68 655.69 556.28 650.28
  Q 574.41 640.07 588.64 625.74
  Q 593.81 620.54 599.24 614.92
  Q 599.76 614.38 599.01 614.40
  Q 570.82 615.04 537.25 614.57
  Z
  M 489.12 674.13
  Q 460.14 660.02 437.39 638.24
  C 430.36 631.50 424.00 623.87 418.26 616.12
  Q 417.13 614.59 415.20 614.61
  Q 394.33 614.76 372.96 614.69
  Q 372.31 614.69 372.19 615.34
  L 371.45 619.29
  Q 371.26 620.29 371.97 621.02
  Q 382.60 631.83 392.11 639.84
  Q 429.93 671.71 478.47 682.71
  Q 482.97 683.73 487.32 684.25
  Q 487.85 684.31 488.06 683.83
  L 491.38 676.32
  Q 491.56 675.90 491.23 675.58
  Q 490.31 674.71 489.12 674.13
  Z
  M 504.11 661.59
  L 509.27 659.29
  Q 509.93 659.00 509.94 658.28
  Q 510.17 639.36 509.93 621.82
  Q 509.91 620.15 509.62 618.44
  C 509.05 615.07 504.33 614.73 501.72 614.74
  Q 469.84 614.84 439.57 614.61
  A 0.49 0.49 0.0 0 0 439.19 615.42
  Q 443.30 620.35 449.06 625.91
  Q 472.36 648.36 503.08 661.60
  Q 503.60 661.82 504.11 661.59
  Z
  M 546.64 676.52
  L 549.89 684.31
  A 0.69 0.69 0.0 0 0 550.64 684.72
  Q 588.60 678.25 620.09 658.42
  Q 643.39 643.75 664.83 622.14
  C 666.56 620.40 665.74 617.47 664.98 615.54
  A 1.30 1.30 0.0 0 0 663.76 614.72
  Q 642.55 614.84 622.27 614.76
  C 620.88 614.76 620.05 615.61 619.31 616.65
  Q 605.61 635.77 588.92 649.00
  Q 569.76 664.18 547.68 673.91
  Q 545.88 674.70 546.64 676.52
  Z
  M 515.55 676.44
  A 14.13 13.50 79.5 0 0 505.52 686.98
  A 14.05 13.32 71.3 0 0 505.37 692.08
  A 14.07 13.47 78.9 0 0 511.07 701.67
  A 14.14 13.49 78.4 0 0 518.48 704.28
  A 14.12 13.51 78.9 0 0 531.64 694.61
  A 14.18 13.57 81.2 0 0 531.56 685.96
  A 14.14 13.49 79.9 0 0 524.03 677.32
  A 14.13 13.53 80.6 0 0 515.55 676.44
  Z"
/>
<path fill="#fefefd" d="
  M 532.34 273.80
  L 531.99 274.98
  Q 531.79 275.64 531.57 274.98
  Q 529.18 267.84 523.88 266.58
  Q 513.98 264.23 505.45 271.73
  A 13.68 13.67 -2.4 0 1 514.30 262.12
  A 13.66 13.65 53.1 0 1 526.57 263.87
  A 13.69 13.68 -75.2 0 1 532.34 273.80
  Z"
/>
<path fill="#c8e8c1" d="
  M 532.34 273.80
  A 13.74 13.67 -34.6 0 1 530.99 281.09
  Q 524.39 280.67 514.75 280.89
  Q 510.37 280.99 507.08 282.23
  A 13.68 13.64 -53.9 0 1 505.45 271.73
  Q 513.98 264.23 523.88 266.58
  Q 529.18 267.84 531.57 274.98
  Q 531.79 275.64 531.99 274.98
  L 532.34 273.80
  Z"
/>
<path fill="#afd0b0" d="
  M 530.99 281.09
  A 13.67 13.67 0.0 0 1 516.00 288.46
  A 13.68 13.67 79.9 0 1 507.08 282.23
  Q 510.37 280.99 514.75 280.89
  Q 524.39 280.67 530.99 281.09
  Z"
/>
<path fill="#fefefd" d="
  M 480.01 288.67
  Q 478.59 288.76 478.13 289.51
  Q 477.77 290.09 478.46 290.11
  Q 481.79 290.18 485.08 289.15
  A 1.25 1.23 -43.3 0 1 485.89 289.17
  L 488.95 290.38
  Q 489.44 290.84 488.66 291.46
  Q 488.25 291.78 487.76 291.86
  C 485.89 292.18 484.03 292.31 482.26 293.09
  Q 478.79 294.61 474.88 295.56
  Q 459.68 299.26 445.96 305.24
  Q 424.18 314.74 404.20 327.76
  Q 394.11 334.34 384.53 342.55
  Q 381.80 344.89 379.34 347.49
  Q 377.07 349.89 374.82 352.31
  Q 373.41 353.82 372.37 352.78
  Q 385.40 337.49 401.39 325.63
  Q 422.88 309.70 443.11 300.62
  Q 455.05 295.26 474.28 289.76
  Q 475.63 289.76 477.02 289.95
  Q 477.50 290.01 476.94 289.20
  Q 478.19 288.37 480.01 288.67
  Z"
/>
<path fill="#afd0b0" d="
  M 476.94 289.20
  Q 477.50 290.01 477.02 289.95
  Q 475.63 289.76 474.28 289.76
  Q 475.71 289.14 476.94 289.20
  Z"
/>
<path fill="#c8e8c1" d="
  M 372.37 352.78
  Q 373.41 353.82 374.82 352.31
  Q 377.07 349.89 379.34 347.49
  Q 381.80 344.89 384.53 342.55
  Q 394.11 334.34 404.20 327.76
  Q 424.18 314.74 445.96 305.24
  Q 459.68 299.26 474.88 295.56
  Q 478.79 294.61 482.26 293.09
  C 484.03 292.31 485.89 292.18 487.76 291.86
  Q 488.25 291.78 488.66 291.46
  Q 489.44 290.84 488.95 290.38
  Q 489.85 290.44 489.90 290.02
  Q 489.94 289.60 490.03 289.43
  Q 490.19 289.12 490.39 289.41
  Q 491.26 290.69 492.01 291.75
  Q 492.48 292.41 491.75 292.77
  C 460.07 308.53 430.92 331.69 413.84 362.72
  Q 413.56 363.23 412.97 363.23
  L 373.00 363.26
  Q 372.64 363.26 372.57 362.90
  Q 372.01 360.24 371.00 357.47
  C 370.34 355.67 371.14 354.06 372.37 352.78
  Z"
/>
<path fill="#c8e8c1" d="
  M 576.73 293.49
  C 575.43 293.42 574.42 294.05 573.41 294.04
  Q 571.87 294.02 571.09 293.32
  L 562.70 289.91
  Q 569.90 290.93 576.73 293.49
  Z"
/>
<path fill="#c8e8c1" d="
  M 547.05 290.45
  Q 546.58 291.73 547.53 292.13
  A 1.10 1.07 44.2 0 0 548.38 292.13
  C 549.86 291.54 551.50 290.14 553.15 290.39
  Q 554.57 290.61 555.97 291.59
  L 554.89 291.62
  Q 554.36 291.63 554.52 292.13
  Q 554.90 293.31 556.04 293.57
  Q 574.07 297.80 583.64 301.62
  C 599.01 307.76 613.86 314.79 628.19 323.34
  Q 633.57 326.55 647.15 337.32
  Q 649.49 339.18 655.70 345.38
  Q 655.92 345.60 656.27 345.65
  Q 656.48 345.68 656.66 345.61
  Q 657.14 345.43 657.02 344.93
  L 656.76 343.78
  Q 662.86 349.67 665.59 352.93
  C 667.59 355.31 665.49 359.33 664.76 361.88
  A 1.61 1.60 -81.8 0 1 663.22 363.04
  L 625.45 362.98
  A 1.74 1.73 -15.0 0 1 623.95 362.12
  Q 613.03 343.09 596.99 328.22
  C 583.88 316.07 571.15 306.26 556.86 298.42
  Q 551.50 295.48 546.61 292.73
  Q 546.17 292.49 546.06 292.01
  Q 545.81 290.90 547.05 290.45
  Z"
/>
<path fill="#fefefd" d="
  M 555.97 291.59
  Q 558.56 291.85 561.24 291.75
  Q 563.36 291.68 565.64 292.35
  Q 568.26 293.12 571.09 293.32
  Q 571.87 294.02 573.41 294.04
  C 574.42 294.05 575.43 293.42 576.73 293.49
  L 578.04 293.82
  L 579.08 295.83
  Q 581.18 297.31 583.26 298.23
  Q 584.45 298.77 585.55 298.20
  L 586.65 297.95
  Q 587.13 297.84 587.47 298.19
  L 589.27 300.02
  Q 590.84 301.05 592.47 301.12
  Q 592.78 301.14 592.64 300.86
  Q 592.56 300.70 592.25 300.59
  Q 592.32 299.85 592.47 299.93
  Q 628.90 315.72 656.76 343.78
  L 657.02 344.93
  Q 657.14 345.43 656.66 345.61
  Q 656.48 345.68 656.27 345.65
  Q 655.92 345.60 655.70 345.38
  Q 649.49 339.18 647.15 337.32
  Q 633.57 326.55 628.19 323.34
  C 613.86 314.79 599.01 307.76 583.64 301.62
  Q 574.07 297.80 556.04 293.57
  Q 554.90 293.31 554.52 292.13
  Q 554.36 291.63 554.89 291.62
  L 555.97 291.59
  Z"
/>
<path fill="#afd0b0" d="
  M 578.04 293.82
  L 592.47 299.93
  Q 592.32 299.85 592.25 300.59
  Q 590.56 299.25 589.27 300.02
  L 587.47 298.19
  Q 587.13 297.84 586.65 297.95
  L 585.55 298.20
  Q 585.37 297.73 584.74 297.46
  Q 581.97 296.28 579.08 295.83
  L 578.04 293.82
  Z"
/>
<path fill="#fefefd" d="
  M 574.29 331.04
  Q 574.64 332.02 573.79 332.35
  A 1.09 1.08 -30.2 0 1 572.58 332.04
  C 570.09 329.14 565.86 327.22 562.79 325.11
  C 555.93 320.39 547.99 317.30 539.74 314.76
  Q 533.38 312.80 527.54 313.71
  L 527.55 305.32
  Q 527.55 304.79 528.06 304.91
  Q 535.09 306.52 542.27 310.19
  Q 559.91 319.22 574.29 331.04
  Z"
/>
<path fill="#fefefd" d="
  M 509.96 312.84
  C 495.87 314.73 482.97 320.77 471.13 328.31
  Q 468.15 330.21 461.59 335.44
  Q 456.95 339.14 451.96 342.49
  Q 452.59 340.81 455.07 338.57
  Q 474.35 321.17 497.61 309.59
  Q 502.97 306.92 509.12 305.20
  A 0.54 0.54 0.0 0 1 509.81 305.70
  L 509.96 312.84
  Z"
/>
<path fill="#c8e8c1" d="
  M 509.96 312.84
  L 510.22 348.53
  Q 510.22 349.22 509.55 349.37
  C 501.81 351.04 495.66 355.49 491.35 362.39
  A 1.84 1.83 16.2 0 1 489.80 363.24
  L 433.99 363.34
  A 0.34 0.34 0.0 0 1 433.73 362.79
  Q 440.80 353.88 447.83 345.82
  Q 450.57 342.68 451.96 342.49
  Q 456.95 339.14 461.59 335.44
  Q 468.15 330.21 471.13 328.31
  C 482.97 320.77 495.87 314.73 509.96 312.84
  Z"
/>
<path fill="#c8e8c1" d="
  M 574.29 331.04
  Q 591.26 344.76 604.29 362.31
  Q 604.67 362.83 604.06 363.01
  Q 603.45 363.18 602.83 363.19
  Q 575.38 363.35 547.38 363.21
  Q 546.84 363.20 546.54 362.75
  Q 540.12 352.88 528.65 349.23
  A 1.65 1.64 9.1 0 1 527.50 347.65
  L 527.54 313.71
  Q 533.38 312.80 539.74 314.76
  C 547.99 317.30 555.93 320.39 562.79 325.11
  C 565.86 327.22 570.09 329.14 572.58 332.04
  A 1.09 1.08 -30.2 0 0 573.79 332.35
  Q 574.64 332.02 574.29 331.04
  Z"
/>
<path fill="#fefefd" d="
  M 339.73 349.82
  Q 341.94 350.46 344.21 349.93
  Q 350.00 352.03 352.36 357.80
  Q 352.51 358.56 351.97 358.97
  Q 351.51 359.32 351.21 358.83
  C 348.16 353.93 342.67 353.06 337.48 353.45
  Q 329.88 354.03 325.57 362.19
  Q 325.94 352.94 334.25 349.76
  Q 336.18 349.02 339.73 349.82
  Z"
/>
<path fill="#afd0b0" d="
  M 344.21 349.93
  Q 341.94 350.46 339.73 349.82
  Q 342.14 349.08 344.21 349.93
  Z"
/>
<path fill="#c8e8c1" d="
  M 352.36 357.80
  Q 353.78 362.82 352.37 367.33
  Q 344.06 367.66 336.09 367.80
  Q 333.49 367.85 330.96 367.45
  Q 328.38 367.04 325.87 366.62
  Q 324.94 363.25 325.57 362.19
  Q 329.88 354.03 337.48 353.45
  C 342.67 353.06 348.16 353.93 351.21 358.83
  Q 351.51 359.32 351.97 358.97
  Q 352.51 358.56 352.36 357.80
  Z"
/>
<path fill="#ff9d5d" d="
  M 709.50 356.59
  Q 712.79 362.46 710.20 367.94
  C 705.82 377.17 693.51 380.62 686.61 371.60
  Q 682.52 366.26 684.38 359.05
  Q 685.61 358.68 685.23 359.19
  Q 686.48 358.01 687.62 357.07
  C 691.75 353.67 698.34 353.33 703.69 354.50
  C 705.17 354.82 706.52 355.85 707.75 356.70
  Q 708.57 357.27 709.50 356.59
  Z"
/>
<path fill="#afd0b0" d="
  M 686.01 355.81
  Q 685.04 357.82 685.23 359.19
  Q 685.61 358.68 684.38 359.05
  Q 684.54 357.24 686.01 355.81
  Z"
/>
<path fill="#fefefd" d="
  M 531.15 373.00
  Q 522.93 370.52 520.25 370.25
  C 515.23 369.73 511.43 371.78 507.49 374.48
  A 0.67 0.66 -23.1 0 1 506.46 374.07
  L 506.34 373.54
  A 14.07 13.71 -81.5 0 1 523.46 366.01
  A 14.08 13.74 -81.0 0 1 531.15 373.00
  Z"
/>
<path fill="#afd0b0" d="
  M 325.87 366.62
  Q 328.38 367.04 330.96 367.45
  Q 333.49 367.85 336.09 367.80
  Q 344.06 367.66 352.37 367.33
  C 349.27 375.28 340.39 378.69 332.76 375.22
  Q 327.35 372.76 325.87 366.62
  Z"
/>
<path fill="#c8e8c1" d="
  M 531.15 373.00
  A 14.04 13.69 -82.8 0 1 531.44 384.71
  A 14.07 13.71 -81.4 0 1 513.71 392.36
  A 14.05 13.72 -80.9 0 1 505.73 383.58
  A 14.06 13.71 -84.2 0 1 506.34 373.54
  L 506.46 374.07
  A 0.67 0.66 -23.1 0 0 507.49 374.48
  C 511.43 371.78 515.23 369.73 520.25 370.25
  Q 522.93 370.52 531.15 373.00
  Z"
/>
<path fill="#c8e8c1" d="
  M 391.32 412.02
  C 386.76 416.16 385.69 420.78 385.70 426.66
  Q 385.75 453.81 385.72 478.77
  A 0.49 0.49 0.0 0 1 385.23 479.26
  L 335.49 479.21
  A 0.60 0.60 0.0 0 1 334.93 478.83
  C 332.59 472.99 329.78 466.92 324.70 463.10
  A 1.35 1.35 0.0 0 1 324.19 461.81
  Q 325.92 451.31 328.06 440.99
  C 331.41 424.82 337.11 409.69 344.45 394.83
  A 2.15 2.14 8.0 0 1 346.00 393.67
  Q 358.64 391.49 365.28 380.98
  A 2.60 2.60 0.0 0 1 367.50 379.76
  L 403.46 379.97
  A 0.21 0.21 0.0 0 1 403.64 380.30
  Q 400.97 384.39 398.98 388.08
  C 395.21 395.08 399.72 402.85 408.02 401.96
  C 413.06 401.42 415.80 395.90 417.28 391.71
  Q 419.14 386.44 422.02 381.38
  Q 422.66 380.26 423.95 380.26
  L 486.83 380.25
  Q 487.47 380.25 487.53 380.90
  C 488.70 394.53 495.90 405.66 509.70 409.87
  Q 510.19 410.02 510.19 410.54
  L 510.27 453.00
  A 0.40 0.40 0.0 0 1 509.71 453.37
  Q 459.80 431.67 410.63 409.50
  C 404.41 406.69 396.57 407.26 391.32 412.02
  Z"
/>
<path fill="#c8e8c1" d="
  M 623.22 396.70
  C 627.83 405.60 641.34 402.46 639.90 391.99
  C 639.33 387.86 636.81 383.85 634.45 380.38
  Q 634.00 379.71 634.80 379.71
  L 669.78 379.83
  A 1.51 1.51 0.0 0 1 671.02 380.48
  Q 678.74 391.63 690.48 393.66
  A 2.01 2.01 0.0 0 1 691.91 394.70
  Q 698.80 407.84 703.85 422.25
  C 708.05 434.25 710.94 448.58 713.20 461.74
  A 1.71 1.70 -22.4 0 1 712.50 463.42
  Q 705.19 468.57 702.01 478.24
  A 1.11 1.11 0.0 0 1 700.96 479.00
  L 652.28 479.19
  A 0.97 0.97 0.0 0 1 651.31 478.23
  Q 651.21 453.58 651.32 426.88
  Q 651.34 421.95 650.18 418.71
  C 647.57 411.43 640.41 407.80 632.82 408.27
  Q 629.49 408.48 622.23 411.89
  C 592.48 425.83 562.00 438.46 532.31 451.92
  Q 530.31 452.83 527.75 453.37
  Q 527.27 453.47 527.27 452.98
  L 527.37 410.71
  A 0.54 0.54 0.0 0 1 527.74 410.20
  Q 547.72 403.34 549.83 380.92
  Q 549.89 380.28 550.54 380.28
  L 614.49 380.28
  Q 615.10 380.28 615.36 380.83
  Q 619.10 388.74 623.22 396.70
  Z"
/>
<path fill="#afd0b0" d="
  M 411.46 429.52
  L 403.72 426.43
  Q 403.38 426.20 403.35 426.09
  Q 402.99 424.89 404.04 425.57
  C 405.70 426.63 407.24 427.41 409.12 428.09
  Q 410.51 428.59 411.46 429.52
  Z"
/>
<path fill="#afd0b0" d="
  M 633.44 427.02
  L 630.48 428.82
  L 630.04 428.83
  Q 629.40 428.84 629.81 428.35
  Q 631.11 426.77 633.44 427.02
  Z"
/>
<path fill="#fefefd" d="
  M 630.03 429.16
  Q 632.16 429.72 633.99 428.96
  L 634.42 438.29
  Q 634.17 438.34 633.95 438.36
  Q 633.48 438.41 633.20 438.02
  C 631.35 435.48 627.18 435.94 624.71 437.05
  Q 611.86 442.87 598.49 448.65
  C 593.82 450.67 589.41 452.99 584.73 454.94
  Q 579.23 457.24 574.27 459.52
  Q 551.18 470.12 527.30 480.00
  L 527.52 473.09
  Q 527.54 472.58 528.01 472.38
  Q 554.12 461.12 580.04 449.53
  Q 583.45 448.01 586.33 447.19
  Q 588.45 447.39 592.17 445.90
  Q 595.45 444.57 596.49 442.70
  Q 611.60 435.49 627.36 429.40
  Q 627.98 429.16 628.66 429.16
  Q 629.35 429.17 630.03 429.16
  Z"
/>
<path fill="#fefefd" d="
  M 421.07 434.19
  L 431.24 439.02
  Q 434.35 441.30 438.12 441.71
  L 440.14 443.01
  Q 445.59 446.76 451.98 448.10
  Q 455.37 448.25 456.91 449.09
  Q 461.28 451.47 466.01 453.03
  Q 466.76 453.27 468.57 454.43
  Q 469.31 457.06 471.90 456.18
  Q 475.22 456.69 477.79 458.68
  Q 478.03 460.97 480.93 461.25
  Q 482.21 462.52 483.07 461.76
  Q 483.63 461.48 484.42 461.52
  Q 485.79 461.77 486.49 462.71
  Q 486.78 463.10 487.27 463.08
  Q 488.41 463.04 489.46 463.48
  Q 499.36 467.62 509.38 471.68
  Q 509.88 471.88 509.88 472.42
  L 509.96 479.89
  Q 505.98 477.78 502.20 476.11
  Q 471.89 462.73 441.69 449.08
  Q 433.14 445.21 423.91 441.24
  Q 421.04 440.00 418.05 438.35
  Q 415.21 436.78 411.50 435.50
  Q 409.97 434.97 408.29 435.60
  Q 406.74 436.18 405.10 437.22
  Q 404.84 433.06 405.72 429.95
  A 0.98 0.98 0.0 0 1 407.20 429.39
  Q 409.88 431.14 412.89 431.44
  Q 414.02 431.56 414.85 432.35
  Q 415.20 432.69 415.67 432.81
  L 421.07 434.19
  Z
  M 416.04 435.56
  Q 415.93 435.02 415.39 435.12
  Q 414.89 435.21 414.61 434.79
  Q 414.04 433.97 413.07 434.15
  Q 411.96 434.36 412.94 434.91
  Q 415.13 436.15 418.02 436.80
  Q 418.68 436.95 418.21 436.46
  Q 417.69 435.94 416.90 436.12
  Q 416.19 436.27 416.04 435.56
  Z"
/>
<path fill="#afd0b0" d="
  M 416.77 431.55
  Q 418.94 431.87 420.40 433.02
  Q 420.80 433.34 421.31 433.37
  Q 421.83 433.40 422.15 433.79
  Q 422.47 434.17 422.96 434.26
  Q 424.45 434.52 425.58 435.27
  Q 426.69 435.99 427.99 436.48
  Q 431.57 437.81 435.66 439.67
  Q 443.46 443.22 451.67 446.73
  Q 452.69 447.16 451.59 447.11
  Q 451.54 447.11 451.16 447.26
  C 449.86 446.64 448.58 446.38 447.35 445.65
  Q 444.52 443.98 441.50 442.78
  Q 440.11 442.22 440.14 443.01
  L 438.12 441.71
  L 437.88 441.31
  Q 437.66 440.97 437.31 440.78
  Q 434.40 439.23 431.24 439.02
  L 421.07 434.19
  L 416.77 431.55
  Z"
/>
<path fill="#ff9d5d" d="
  M 509.96 479.89
  L 510.06 596.64
  Q 510.06 596.97 509.76 596.82
  Q 504.85 594.27 499.58 591.92
  Q 474.10 580.56 448.89 569.36
  C 433.98 562.73 419.23 555.76 404.29 549.43
  Q 402.98 548.88 402.98 547.45
  Q 402.96 492.57 403.13 438.37
  Q 403.13 437.72 403.71 437.72
  Q 404.15 438.17 404.46 437.91
  Q 404.97 437.47 405.10 437.22
  Q 406.74 436.18 408.29 435.60
  Q 409.97 434.97 411.50 435.50
  Q 415.21 436.78 418.05 438.35
  Q 421.04 440.00 423.91 441.24
  Q 433.14 445.21 441.69 449.08
  Q 471.89 462.73 502.20 476.11
  Q 505.98 477.78 509.96 479.89
  Z"
/>
<path fill="#ff9d5d" d="
  M 634.42 438.29
  L 634.32 548.52
  A 1.36 1.35 -16.4 0 1 633.69 549.66
  Q 632.37 550.47 630.96 551.15
  Q 620.14 556.32 608.72 561.32
  C 581.69 573.16 554.48 584.63 528.07 597.72
  Q 527.55 597.98 527.55 597.40
  L 527.30 480.00
  Q 551.18 470.12 574.27 459.52
  Q 579.23 457.24 584.73 454.94
  C 589.41 452.99 593.82 450.67 598.49 448.65
  Q 611.86 442.87 624.71 437.05
  C 627.18 435.94 631.35 435.48 633.20 438.02
  Q 633.48 438.41 633.95 438.36
  Q 634.17 438.34 634.42 438.29
  Z"
/>
<path fill="#afd0b0" d="
  M 596.49 442.70
  Q 595.45 444.57 592.17 445.90
  Q 588.45 447.39 586.33 447.19
  Q 591.40 444.12 596.49 442.70
  Z"
/>
<path fill="#afd0b0" d="
  M 468.57 454.43
  L 471.90 456.18
  Q 469.31 457.06 468.57 454.43
  Z"
/>
<path fill="#c8e8c1" d="
  M 477.79 458.68
  L 484.42 461.52
  Q 483.63 461.48 483.07 461.76
  Q 483.31 460.80 480.93 461.25
  Q 478.03 460.97 477.79 458.68
  Z"
/>
<path fill="#afd0b0" d="
  M 480.93 461.25
  Q 483.31 460.80 483.07 461.76
  Q 482.21 462.52 480.93 461.25
  Z"
/>
<path fill="#fefefd" d="
  M 317.84 485.29
  Q 315.02 481.46 313.86 480.66
  Q 308.46 476.93 300.46 477.78
  Q 295.02 478.35 292.73 482.98
  A 0.77 0.75 13.3 0 1 292.03 483.40
  Q 291.51 483.39 291.19 482.72
  A 13.59 13.59 0.0 0 1 300.23 473.41
  A 13.63 13.61 56.7 0 1 313.17 476.09
  A 13.61 13.59 -72.0 0 1 317.84 485.29
  Z"
/>
<path fill="#afd0b0" d="
  M 731.94 473.28
  Q 727.79 473.24 726.84 475.22
  Q 727.29 476.07 725.57 474.94
  Q 728.42 472.28 731.94 473.28
  Z"
/>
<path fill="#afd0b0" d="
  M 734.93 473.57
  Q 736.61 473.74 737.93 474.49
  Q 738.31 474.70 737.93 474.92
  Q 737.44 475.19 737.78 475.63
  L 736.27 474.72
  Q 736.05 474.05 734.93 473.57
  Z"
/>
<path fill="#fefefd" d="
  M 736.27 474.72
  L 737.78 475.63
  Q 742.92 475.96 744.88 481.67
  Q 743.39 481.22 742.00 480.62
  Q 739.51 479.53 737.03 478.46
  Q 734.60 477.41 732.04 477.29
  Q 730.47 477.22 727.08 478.13
  Q 724.04 478.94 720.85 479.33
  Q 722.56 476.14 725.57 474.94
  Q 727.29 476.07 726.84 475.22
  L 736.27 474.72
  Z"
/>
<path fill="#c8e8c1" d="
  M 744.88 481.67
  Q 747.02 486.99 744.72 492.27
  Q 737.04 491.89 729.80 491.68
  Q 728.08 491.63 724.78 491.04
  Q 722.29 490.60 719.69 490.65
  Q 718.64 488.95 718.75 486.25
  Q 718.93 481.93 720.85 479.33
  Q 724.04 478.94 727.08 478.13
  Q 730.47 477.22 732.04 477.29
  Q 734.60 477.41 737.03 478.46
  Q 739.51 479.53 742.00 480.62
  Q 743.39 481.22 744.88 481.67
  Z"
/>
<path fill="#c8e8c1" d="
  M 317.84 485.29
  A 13.57 13.49 -37.4 0 1 317.04 491.12
  Q 309.32 491.39 301.76 491.38
  Q 299.98 491.38 296.55 490.81
  Q 294.01 490.38 291.30 490.44
  A 13.60 13.55 -45.9 0 1 291.19 482.72
  Q 291.51 483.39 292.03 483.40
  A 0.77 0.75 13.3 0 0 292.73 482.98
  Q 295.02 478.35 300.46 477.78
  Q 308.46 476.93 313.86 480.66
  Q 315.02 481.46 317.84 485.29
  Z"
/>
<path fill="#afd0b0" d="
  M 291.30 490.44
  Q 294.01 490.38 296.55 490.81
  Q 299.98 491.38 301.76 491.38
  Q 309.32 491.39 317.04 491.12
  A 13.56 13.55 85.1 0 1 311.13 498.15
  A 13.62 13.58 -51.1 0 1 300.13 499.35
  A 13.60 13.60 0.0 0 1 291.30 490.44
  Z"
/>
<path fill="#afd0b0" d="
  M 719.69 490.65
  Q 722.29 490.60 724.78 491.04
  Q 728.08 491.63 729.80 491.68
  Q 737.04 491.89 744.72 492.27
  Q 739.72 500.24 731.18 499.74
  Q 727.01 499.50 724.14 497.18
  Q 721.11 494.73 719.69 490.65
  Z"
/>
<path fill="#c8e8c1" d="
  M 400.27 572.67
  Q 394.86 577.83 398.24 584.79
  Q 401.13 590.74 405.63 596.82
  A 0.51 0.51 0.0 0 1 405.23 597.63
  L 367.46 597.94
  A 0.96 0.94 -13.1 0 1 366.61 597.42
  C 362.31 588.85 355.45 584.20 346.61 581.25
  Q 345.44 580.86 344.94 579.76
  Q 329.62 545.90 323.89 512.06
  Q 323.74 511.17 324.42 510.58
  Q 331.09 504.92 333.81 497.03
  Q 333.99 496.51 334.55 496.51
  L 384.99 496.49
  A 0.63 0.63 0.0 0 1 385.62 497.12
  Q 385.79 518.77 385.69 547.33
  C 385.67 553.96 387.91 559.16 393.18 562.90
  C 399.40 567.31 406.59 568.72 412.95 571.88
  C 431.72 581.20 450.17 589.24 469.02 597.39
  Q 470.56 598.05 468.88 598.05
  Q 450.24 598.01 428.64 598.14
  Q 427.07 598.15 426.13 596.74
  Q 419.15 586.26 413.26 575.98
  Q 411.20 572.37 409.33 571.39
  C 406.57 569.95 402.55 570.50 400.27 572.67
  Z"
/>
<path fill="#c8e8c1" d="
  M 598.39 584.68
  Q 620.36 575.08 640.59 565.83
  C 649.89 561.59 651.40 554.53 651.33 544.63
  Q 651.17 520.40 651.36 497.20
  A 0.64 0.64 0.0 0 1 652.00 496.57
  L 701.96 496.47
  A 1.21 1.20 79.9 0 1 703.09 497.26
  Q 705.95 505.13 712.89 510.47
  A 1.12 1.11 23.5 0 1 713.32 511.54
  Q 709.50 535.85 701.24 557.29
  Q 697.05 568.17 691.91 580.62
  A 1.37 1.34 4.9 0 1 690.94 581.42
  Q 676.12 584.63 670.03 597.32
  Q 669.75 597.91 669.09 597.91
  L 632.25 597.96
  A 0.42 0.41 -72.8 0 1 631.91 597.31
  C 634.98 592.85 638.84 587.95 640.47 582.81
  C 641.85 578.48 639.67 573.94 635.72 571.98
  Q 629.69 568.98 625.59 575.29
  Q 618.78 585.76 612.28 596.67
  A 2.41 2.41 0.0 0 1 610.21 597.85
  L 567.77 598.06
  A 0.24 0.24 0.0 0 1 567.58 597.68
  Q 567.86 597.31 568.32 597.12
  C 578.29 593.02 588.82 588.86 598.39 584.68
  Z"
/>
<path fill="#fefefd" d="
  M 336.71 599.18
  L 340.79 599.75
  L 342.72 600.06
  Q 343.47 600.32 345.23 599.61
  Q 346.06 599.96 346.56 600.53
  L 346.08 601.67
  Q 345.89 602.13 346.24 602.48
  Q 347.13 603.36 348.49 602.17
  Q 351.15 604.45 352.38 608.06
  Q 352.33 608.58 352.18 608.84
  Q 351.88 609.35 351.50 608.90
  Q 345.83 602.13 337.37 603.10
  Q 336.07 603.25 332.00 604.70
  Q 329.42 605.62 326.51 606.04
  Q 330.50 598.54 336.71 599.18
  Z"
/>
<path fill="#afd0b0" d="
  M 345.23 599.61
  Q 343.47 600.32 342.72 600.06
  Q 342.12 598.10 345.23 599.61
  Z"
/>
<path fill="#afd0b0" d="
  M 346.56 600.53
  L 348.49 602.17
  Q 347.13 603.36 346.24 602.48
  Q 345.89 602.13 346.08 601.67
  L 346.56 600.53
  Z"
/>
<path fill="#ff9d5d" d="
  M 703.19 603.16
  Q 705.01 605.64 707.82 607.06
  Q 708.27 607.29 708.46 607.76
  L 711.08 613.98
  Q 710.09 621.66 703.84 624.78
  C 693.11 630.15 682.86 620.79 684.13 609.74
  Q 684.37 607.66 685.59 607.61
  Q 691.53 603.10 696.25 602.38
  Q 699.08 601.95 703.19 603.16
  Z"
/>
<path fill="#c8e8c1" d="
  M 352.38 608.06
  Q 353.81 612.47 352.06 617.48
  Q 349.75 616.46 347.11 616.86
  Q 344.13 617.31 342.82 617.21
  Q 338.54 616.86 334.25 616.63
  Q 329.51 616.38 325.17 612.79
  Q 325.04 608.47 326.51 606.04
  Q 329.42 605.62 332.00 604.70
  Q 336.07 603.25 337.37 603.10
  Q 345.83 602.13 351.50 608.90
  Q 351.88 609.35 352.18 608.84
  Q 352.33 608.58 352.38 608.06
  Z"
/>
<path fill="#fefefd" d="
  M 703.19 603.16
  L 708.43 604.79
  Q 711.96 607.94 711.08 613.98
  L 708.46 607.76
  Q 708.27 607.29 707.82 607.06
  Q 705.01 605.64 703.19 603.16
  Z"
/>
<path fill="#afd0b0" d="
  M 325.17 612.79
  Q 329.51 616.38 334.25 616.63
  Q 338.54 616.86 342.82 617.21
  Q 344.13 617.31 347.11 616.86
  Q 349.75 616.46 352.06 617.48
  C 347.97 626.09 338.11 628.97 330.60 623.28
  Q 325.92 619.74 325.17 612.79
  Z"
/>
<path fill="#afd0b0" d="
  M 527.36 619.87
  C 527.33 614.73 533.29 614.51 537.25 614.57
  Q 570.82 615.04 599.01 614.40
  Q 599.76 614.38 599.24 614.92
  Q 593.81 620.54 588.64 625.74
  Q 574.41 640.07 556.28 650.28
  Q 546.68 655.69 536.83 660.63
  Q 535.37 661.36 533.79 661.78
  Q 533.19 661.95 532.63 661.68
  L 527.94 659.49
  A 1.08 1.07 -77.4 0 1 527.33 658.52
  Q 527.49 639.29 527.36 619.87
  Z"
/>
<path fill="#afd0b0" d="
  M 489.12 674.13
  Q 490.31 674.71 491.23 675.58
  Q 491.56 675.90 491.38 676.32
  L 488.06 683.83
  Q 487.85 684.31 487.32 684.25
  Q 482.97 683.73 478.47 682.71
  Q 429.93 671.71 392.11 639.84
  Q 382.60 631.83 371.97 621.02
  Q 371.26 620.29 371.45 619.29
  L 372.19 615.34
  Q 372.31 614.69 372.96 614.69
  Q 394.33 614.76 415.20 614.61
  Q 417.13 614.59 418.26 616.12
  C 424.00 623.87 430.36 631.50 437.39 638.24
  Q 460.14 660.02 489.12 674.13
  Z"
/>
<path fill="#afd0b0" d="
  M 509.27 659.29
  L 504.11 661.59
  Q 503.60 661.82 503.08 661.60
  Q 472.36 648.36 449.06 625.91
  Q 443.30 620.35 439.19 615.42
  A 0.49 0.49 0.0 0 1 439.57 614.61
  Q 469.84 614.84 501.72 614.74
  C 504.33 614.73 509.05 615.07 509.62 618.44
  Q 509.91 620.15 509.93 621.82
  Q 510.17 639.36 509.94 658.28
  Q 509.93 659.00 509.27 659.29
  Z"
/>
<path fill="#afd0b0" d="
  M 549.89 684.31
  L 546.64 676.52
  Q 545.88 674.70 547.68 673.91
  Q 569.76 664.18 588.92 649.00
  Q 605.61 635.77 619.31 616.65
  C 620.05 615.61 620.88 614.76 622.27 614.76
  Q 642.55 614.84 663.76 614.72
  A 1.30 1.30 0.0 0 1 664.98 615.54
  C 665.74 617.47 666.56 620.40 664.83 622.14
  Q 643.39 643.75 620.09 658.42
  Q 588.60 678.25 550.64 684.72
  A 0.69 0.69 0.0 0 1 549.89 684.31
  Z"
/>
<path fill="#afd0b0" d="
  M 524.03 677.32
  Q 522.47 677.99 521.21 677.94
  Q 521.21 677.74 521.56 677.68
  Q 521.86 677.62 521.78 677.33
  Q 521.75 677.19 521.63 677.07
  Q 521.52 676.96 521.33 676.93
  Q 519.10 676.51 517.31 677.41
  Q 516.82 676.15 515.55 676.44
  A 14.13 13.53 80.6 0 1 524.03 677.32
  Z"
/>
<path fill="#fefefd" d="
  M 515.55 676.44
  Q 516.82 676.15 517.31 677.41
  Q 519.17 678.29 521.21 677.94
  Q 522.47 677.99 524.03 677.32
  A 14.14 13.49 79.9 0 1 531.56 685.96
  Q 524.90 680.01 516.49 680.94
  Q 510.36 681.62 505.52 686.98
  A 14.13 13.50 79.5 0 1 515.55 676.44
  Z"
/>
<path fill="#c8e8c1" d="
  M 531.56 685.96
  A 14.18 13.57 81.2 0 1 531.64 694.61
  Q 516.64 698.91 505.37 692.08
  A 14.05 13.32 71.3 0 1 505.52 686.98
  Q 510.36 681.62 516.49 680.94
  Q 524.90 680.01 531.56 685.96
  Z"
/>
<path fill="#afd0b0" d="
  M 505.37 692.08
  Q 516.64 698.91 531.64 694.61
  A 14.12 13.51 78.9 0 1 518.48 704.28
  A 14.14 13.49 78.4 0 1 511.07 701.67
  A 14.07 13.47 78.9 0 1 505.37 692.08
  Z"
/>
<path fill="#19353a" d="
  M 421.22 759.82
  Q 421.85 759.69 422.36 759.22
  A 2.83 2.82 -72.9 0 1 423.64 758.54
  C 430.42 756.98 436.67 758.81 440.49 765.10
  Q 442.44 768.31 442.42 774.07
  Q 442.39 782.68 442.42 789.07
  C 442.45 795.72 432.96 795.52 432.86 788.45
  Q 432.78 782.23 432.68 776.14
  C 432.65 773.98 432.29 769.80 429.34 769.41
  Q 421.25 768.33 420.42 775.97
  Q 419.88 780.91 420.26 788.40
  C 420.43 791.56 418.54 793.87 415.27 793.82
  Q 410.08 793.75 410.10 788.52
  Q 410.17 766.76 410.06 747.52
  Q 410.05 745.05 412.12 743.75
  Q 415.55 741.61 418.83 744.72
  Q 420.09 745.91 420.15 747.46
  Q 420.35 752.47 420.17 758.94
  Q 420.14 760.04 421.22 759.82
  Z"
/>
<path fill="#19353a" d="
  M 534.65 783.38
  C 536.62 782.93 538.03 781.87 539.70 780.82
  C 543.84 778.23 549.45 784.31 546.25 788.38
  Q 542.87 792.66 537.26 793.61
  Q 523.06 796.00 513.74 785.70
  C 508.24 779.61 506.56 769.42 509.23 761.73
  Q 512.55 752.15 522.85 747.47
  Q 533.82 742.49 544.55 750.65
  Q 546.71 752.29 547.58 754.88
  C 548.59 757.88 544.26 760.49 541.95 761.27
  A 2.35 2.34 57.2 0 1 539.61 760.76
  C 535.06 756.55 531.40 755.58 525.78 758.53
  C 520.47 761.32 517.79 768.53 519.87 774.35
  C 522.20 780.88 527.64 785.01 534.65 783.38
  Z"
/>
<path fill="#19353a" d="
  M 290.83 757.94
  A 0.86 0.86 0.0 0 0 289.95 758.81
  Q 290.17 773.77 289.34 788.61
  Q 289.07 793.30 284.81 793.83
  C 280.92 794.30 278.84 791.04 278.84 787.61
  Q 278.83 774.80 278.57 762.46
  Q 278.54 761.03 278.74 759.70
  A 1.63 1.62 -87.2 0 0 277.07 757.85
  C 271.27 758.08 261.63 758.48 264.01 749.30
  C 265.01 745.45 270.24 746.04 273.11 745.98
  Q 284.07 745.73 296.85 745.79
  C 300.58 745.81 303.47 746.80 304.17 750.60
  C 304.97 754.93 302.24 758.03 297.77 758.03
  Q 294.25 758.02 290.83 757.94
  Z"
/>
<path fill="#19353a" d="
  M 741.45 768.55
  C 740.24 768.19 738.99 768.68 737.84 768.22
  Q 734.26 766.78 734.60 763.21
  Q 735.15 757.53 741.02 758.44
  A 1.19 1.19 0.0 0 0 742.39 757.20
  C 742.27 754.81 741.62 750.69 743.41 749.01
  Q 746.03 746.55 749.49 747.98
  Q 751.42 748.77 751.47 750.80
  Q 751.55 754.26 751.45 757.43
  A 1.00 1.00 0.0 0 0 752.47 758.46
  C 755.41 758.41 759.55 758.90 760.77 761.92
  C 762.08 765.16 759.60 768.13 756.29 768.39
  Q 754.98 768.49 753.57 768.51
  Q 752.11 768.53 752.12 769.99
  L 752.24 782.50
  A 0.99 0.98 85.7 0 0 753.36 783.47
  C 762.51 782.20 764.14 793.18 755.47 793.89
  C 748.39 794.48 742.40 790.92 742.18 783.71
  Q 741.96 776.57 742.01 769.31
  Q 742.01 768.72 741.45 768.55
  Z"
/>
<path fill="#19353a" d="
  M 724.81 768.97
  C 719.16 766.20 713.97 771.26 714.63 776.94
  Q 715.33 782.93 720.35 784.68
  C 725.33 786.42 727.74 778.44 731.95 783.75
  C 735.24 787.91 731.51 792.51 727.30 793.32
  Q 711.24 796.44 705.40 783.08
  C 704.03 779.94 704.35 777.08 704.21 773.78
  Q 704.13 771.94 704.81 770.18
  Q 709.06 759.26 719.57 757.85
  C 724.65 757.17 729.56 758.81 732.15 763.35
  Q 733.14 765.09 732.59 767.19
  C 731.37 771.84 728.04 770.55 724.81 768.97
  Z"
/>
<path fill="#19353a" d="
  M 309.33 781.48
  C 311.74 785.54 317.85 786.56 321.42 782.82
  Q 322.66 781.52 324.28 782.29
  C 331.41 785.69 327.39 792.76 321.46 793.61
  C 315.47 794.47 309.75 794.30 305.08 790.40
  C 295.09 782.06 296.04 764.96 308.47 759.35
  C 315.34 756.26 323.84 758.29 328.03 764.62
  Q 331.80 770.32 329.92 777.81
  Q 329.28 780.35 326.53 780.33
  Q 319.09 780.28 309.97 780.35
  A 0.75 0.75 0.0 0 0 309.33 781.48
  Z
  M 308.94 772.67
  L 321.52 772.81
  A 0.02 0.02 0.0 0 0 321.54 772.79
  L 321.54 772.76
  A 6.12 5.93 0.6 0 0 315.48 766.76
  L 315.10 766.76
  A 6.12 5.93 0.6 0 0 308.92 772.62
  L 308.92 772.65
  A 0.02 0.02 0.0 0 0 308.94 772.67
  Z"
/>
<path fill="#19353a" d="
  M 458.09 781.24
  C 460.11 785.92 466.51 786.15 469.70 783.12
  Q 472.71 780.26 475.25 783.54
  Q 475.47 783.82 475.81 784.26
  Q 478.31 787.50 475.40 790.38
  C 471.27 794.48 466.48 794.13 461.39 793.70
  Q 458.08 793.42 454.68 791.00
  Q 448.39 786.52 447.39 779.42
  Q 445.36 764.91 457.84 759.10
  C 461.45 757.42 467.67 757.87 471.40 759.86
  Q 480.93 764.94 479.05 777.41
  Q 478.61 780.35 475.25 780.26
  Q 467.83 780.06 458.85 780.08
  A 0.83 0.83 0.0 0 0 458.09 781.24
  Z
  M 458.00 772.96
  L 469.84 772.96
  A 0.26 0.26 0.0 0 0 470.10 772.70
  L 470.10 772.53
  A 5.44 5.19 0.0 0 0 464.66 767.34
  L 463.18 767.34
  A 5.44 5.19 -0.0 0 0 457.74 772.53
  L 457.74 772.70
  A 0.26 0.26 0.0 0 0 458.00 772.96
  Z"
/>
<path fill="#19353a" d="
  M 496.65 760.42
  Q 499.48 757.56 503.64 757.99
  C 506.67 758.31 507.37 762.92 507.14 765.31
  A 2.32 2.31 -3.9 0 1 505.36 767.34
  C 501.01 768.34 495.41 769.59 495.35 775.22
  Q 495.28 780.96 495.38 786.78
  C 495.47 791.11 493.66 795.10 488.41 793.33
  C 485.68 792.41 485.14 788.56 485.29 786.07
  Q 485.96 774.96 485.25 765.21
  Q 485.04 762.46 486.49 760.11
  C 488.35 757.10 492.85 758.03 494.81 760.34
  A 1.25 1.24 47.4 0 0 496.65 760.42
  Z"
/>
<path fill="#19353a" d="
  M 640.71 760.66
  Q 641.39 761.67 642.37 760.95
  Q 650.64 754.81 658.32 761.36
  C 661.56 764.12 663.25 767.77 663.33 772.06
  Q 663.49 780.01 663.63 787.01
  Q 663.68 789.50 662.63 791.70
  C 661.06 795.03 655.62 794.47 654.42 791.08
  Q 653.75 789.19 653.61 787.34
  Q 653.16 781.39 653.29 773.96
  C 653.34 770.69 650.96 769.03 647.65 769.37
  C 643.39 769.81 640.95 772.55 641.10 776.91
  Q 641.30 783.15 640.96 788.43
  C 640.51 795.38 631.25 795.75 630.99 788.78
  Q 630.56 777.78 630.55 765.51
  C 630.55 760.35 633.38 757.10 638.91 758.57
  A 1.30 1.26 79.5 0 1 639.63 759.08
  L 640.71 760.66
  Z"
/>
<path fill="#19353a" d="
  M 680.21 779.80
  A 0.87 0.86 75.5 0 0 679.43 781.13
  Q 683.00 786.75 689.46 784.16
  Q 690.74 783.65 691.67 782.51
  Q 692.15 781.93 692.91 781.94
  Q 695.42 782.00 696.69 784.04
  C 699.76 789.00 695.73 793.04 690.92 793.63
  C 683.63 794.53 677.31 794.14 672.52 788.49
  C 667.31 782.35 666.36 771.16 671.41 764.67
  C 677.24 757.19 688.67 755.35 695.78 761.86
  Q 701.29 766.90 701.30 773.96
  C 701.30 776.11 700.66 779.94 697.82 780.03
  Q 688.55 780.30 680.21 779.80
  Z
  M 678.67 772.96
  L 691.01 773.04
  A 0.23 0.23 0.0 0 0 691.24 772.81
  L 691.24 772.68
  A 5.29 5.28 0.4 0 0 685.99 767.37
  L 683.77 767.35
  A 5.29 5.28 0.4 0 0 678.44 772.60
  L 678.44 772.73
  A 0.23 0.23 0.0 0 0 678.67 772.96
  Z"
/>
<path fill="#19353a" d="
  M 360.57 790.22
  A 0.43 0.43 0.0 0 0 359.89 790.05
  Q 358.51 791.24 357.01 792.42
  C 353.97 794.78 345.79 794.52 342.70 792.35
  C 338.57 789.46 335.08 785.53 334.33 780.66
  Q 332.08 766.14 344.63 759.54
  Q 346.80 758.40 349.72 758.26
  C 353.18 758.11 356.22 758.07 358.74 760.87
  Q 359.25 761.43 359.82 760.94
  C 360.99 759.96 361.72 758.67 363.37 758.42
  C 366.41 757.96 369.48 759.36 369.39 762.76
  Q 369.02 776.70 369.75 788.32
  C 369.87 790.18 369.16 792.80 367.07 793.33
  Q 362.18 794.57 360.57 790.22
  Z
  M 350.1920 784.3899
  A 8.56 7.66 101.1 0 0 359.3567 777.4647
  A 8.56 7.66 101.1 0 0 353.4880 767.5901
  A 8.56 7.66 101.1 0 0 344.3233 774.5153
  A 8.56 7.66 101.1 0 0 350.1920 784.3899
  Z"
/>
<path fill="#19353a" d="
  M 397.49 770.23
  C 395.30 768.53 392.30 766.77 389.47 768.22
  C 384.98 770.52 382.20 776.66 385.86 780.92
  Q 391.46 787.42 398.02 782.11
  Q 398.42 781.79 398.93 781.83
  Q 400.96 781.99 402.24 783.29
  C 406.41 787.54 401.98 792.27 397.68 793.34
  C 392.72 794.59 386.91 794.46 382.44 791.49
  C 371.82 784.42 371.78 768.77 381.68 761.26
  C 387.88 756.56 398.73 756.78 403.48 763.73
  C 405.33 766.45 401.68 769.40 399.49 770.45
  A 1.92 1.90 50.9 0 1 397.49 770.23
  Z"
/>
<path fill="#19353a" d="
  M 570.3724 793.9963
  A 18.17 17.89 81.0 0 1 549.8603 778.8486
  A 18.17 17.89 81.0 0 1 564.6876 758.1037
  A 18.17 17.89 81.0 0 1 585.1997 773.2514
  A 18.17 17.89 81.0 0 1 570.3724 793.9963
  Z
  M 567.3587 784.5381
  A 8.16 7.60 93.1 0 0 575.3889 776.8010
  A 8.16 7.60 93.1 0 0 568.2413 768.2419
  A 8.16 7.60 93.1 0 0 560.2111 775.9790
  A 8.16 7.60 93.1 0 0 567.3587 784.5381
  Z"
/>
<path fill="#19353a" d="
  M 602.31 760.83
  C 606.49 757.53 613.08 757.23 617.40 760.32
  Q 623.17 764.46 623.43 771.86
  Q 623.71 780.15 623.41 788.87
  C 623.18 795.61 614.21 795.53 614.01 788.84
  Q 613.80 782.04 613.40 774.98
  C 613.14 770.37 609.66 767.24 605.14 769.56
  C 602.25 771.05 601.19 774.37 601.25 777.42
  Q 601.34 782.73 601.15 788.31
  C 600.90 795.57 591.29 796.15 591.29 788.53
  Q 591.29 778.08 591.17 763.88
  Q 591.16 761.91 592.19 760.34
  C 593.85 757.83 599.01 757.18 600.55 760.42
  Q 601.17 761.74 602.31 760.83
  Z"
/>
</svg>
